<?xml version="1.0" encoding="UTF-8"?>
<svg xmlns="http://www.w3.org/2000/svg"
     xmlns:xlink="http://www.w3.org/1999/xlink"
     xmlns:gadfly="http://www.gadflyjl.org/ns"
     version="1.2"
     width="264.55mm" height="211.64mm" viewBox="0 0 264.55 211.64"
     stroke="none"
     fill="#000000"
     stroke-width="0.3"
     font-size="3.88"
>
<g class="plotroot xscalable yscalable" id="img-bedb3f0b-1">
  <g font-size="3.88" font-family="'PT Sans','Helvetica Neue','Helvetica',sans-serif" fill="#564A55" stroke="#000000" stroke-opacity="0.000" id="img-bedb3f0b-2">
    <text x="133.18" y="200.03" text-anchor="middle" dy="0.6em">Mv</text>
  </g>
  <g class="guide xlabels" font-size="2.82" font-family="'PT Sans Caption','Helvetica Neue','Helvetica',sans-serif" fill="#6C606B" id="img-bedb3f0b-3">
    <text x="22.31" y="193.36" text-anchor="middle" dy="0.6em">3.75</text>
    <text x="77.74" y="193.36" text-anchor="middle" dy="0.6em">4.00</text>
    <text x="133.18" y="193.36" text-anchor="middle" dy="0.6em">4.25</text>
    <text x="188.62" y="193.36" text-anchor="middle" dy="0.6em">4.50</text>
    <text x="244.06" y="193.36" text-anchor="middle" dy="0.6em">4.75</text>
  </g>
  <g class="guide colorkey" id="img-bedb3f0b-4">
    <g fill="#4C404B" font-size="2.82" font-family="'PT Sans','Helvetica Neue','Helvetica',sans-serif" id="img-bedb3f0b-5">
      <text x="249.87" y="101.48" dy="0.35em" id="img-bedb3f0b-6" class="color_Original">Original</text>
      <text x="249.87" y="105.11" dy="0.35em" id="img-bedb3f0b-7" class="color_Polyfit">Polyfit</text>
    </g>
    <g stroke="#000000" stroke-opacity="0.000" id="img-bedb3f0b-8">
      <rect x="247.06" y="100.58" width="1.81" height="1.81" id="img-bedb3f0b-9" fill="#00BFFF" class="color_Original"/>
      <rect x="247.06" y="104.2" width="1.81" height="1.81" id="img-bedb3f0b-10" fill="#D4CA3A" class="color_Polyfit"/>
    </g>
    <g fill="#362A35" font-size="3.88" font-family="'PT Sans','Helvetica Neue','Helvetica',sans-serif" stroke="#000000" stroke-opacity="0.000" id="img-bedb3f0b-11">
      <text x="247.06" y="97.66" id="img-bedb3f0b-12">index</text>
    </g>
  </g>
<g clip-path="url(#img-bedb3f0b-13)">
  <g id="img-bedb3f0b-14">
    <g pointer-events="visible" opacity="1" fill="#000000" fill-opacity="0.000" stroke="#000000" stroke-opacity="0.000" class="guide background" id="img-bedb3f0b-15">
      <rect x="20.31" y="10.61" width="225.75" height="181.74" id="img-bedb3f0b-16"/>
    </g>
    <g class="guide ygridlines xfixed" stroke-dasharray="0.5,0.5" stroke-width="0.2" stroke="#D0D0E0" id="img-bedb3f0b-17">
      <path fill="none" d="M20.31,190.36 L 246.06 190.36" id="img-bedb3f0b-18"/>
      <path fill="none" d="M20.31,131.11 L 246.06 131.11" id="img-bedb3f0b-19"/>
      <path fill="none" d="M20.31,71.86 L 246.06 71.86" id="img-bedb3f0b-20"/>
      <path fill="none" d="M20.31,12.61 L 246.06 12.61" id="img-bedb3f0b-21"/>
    </g>
    <g class="guide xgridlines yfixed" stroke-dasharray="0.5,0.5" stroke-width="0.2" stroke="#D0D0E0" id="img-bedb3f0b-22">
      <path fill="none" d="M22.31,10.61 L 22.31 192.36" id="img-bedb3f0b-23"/>
      <path fill="none" d="M77.74,10.61 L 77.74 192.36" id="img-bedb3f0b-24"/>
      <path fill="none" d="M133.18,10.61 L 133.18 192.36" id="img-bedb3f0b-25"/>
      <path fill="none" d="M188.62,10.61 L 188.62 192.36" id="img-bedb3f0b-26"/>
      <path fill="none" d="M244.06,10.61 L 244.06 192.36" id="img-bedb3f0b-27"/>
    </g>
    <g class="plotpanel" id="img-bedb3f0b-28">
      <g stroke-width="0.3" fill="#000000" fill-opacity="0.000" class="geometry color_Polyfit" stroke-dasharray="none" stroke="#D4CA3A" id="img-bedb3f0b-29">
        <path fill="none" d="M27.47,18.54 L 29.69 29.18 31.91 39.28 34.12 48.86 36.34 57.95 38.56 66.55 40.78 74.7 42.99 82.41 45.21 89.7 47.43 96.58 49.65 103.07 51.86 109.19 54.08 114.96 56.3 120.38 58.52 125.49 60.73 130.28 62.95 134.78 65.17 139 67.39 142.96 69.6 146.66 71.82 150.12 74.04 153.35 76.26 156.37 78.47 159.18 80.69 161.79 82.91 164.22 85.13 166.48 87.34 168.58 89.56 170.52 91.78 172.31 94 173.97 96.21 175.49 98.43 176.89 100.65 178.18 102.87 179.36 105.08 180.43 107.3 181.41 109.52 182.29 111.74 183.09 113.96 183.8 116.17 184.43 118.39 184.99 120.61 185.47 122.83 185.88 125.04 186.22 127.26 186.49 129.48 186.7 131.7 186.84 133.91 186.91 136.13 186.92 138.35 186.86 140.57 186.73 142.78 186.54 145 186.27 147.22 185.93 149.44 185.51 151.65 185.01 153.87 184.43 156.09 183.76 158.31 183 160.52 182.14 162.74 181.17 164.96 180.1 167.18 178.91 169.39 177.59 171.61 176.15 173.83 174.57 176.05 172.84 178.26 170.95 180.48 168.9 182.7 166.68 184.92 164.27 187.13 161.67 189.35 158.86 191.57 155.84 193.79 152.59 196 149.09 198.22 145.34 200.44 141.33 202.66 137.03" id="img-bedb3f0b-30"/>
      </g>
      <g class="geometry" id="img-bedb3f0b-31">
        <g stroke-width="0.3" id="img-bedb3f0b-32">
          <g stroke="#FFFFFF" fill="#00BFFF" id="img-bedb3f0b-33">
            <use xlink:href="#img-bedb3f0b-34" x="202.66" y="137.03" id="img-bedb3f0b-35" class="color_Original"/>
          </g>
          <g stroke="#FFFFFF" fill="#00BFFF" id="img-bedb3f0b-36">
            <use xlink:href="#img-bedb3f0b-37" x="153.87" y="184.43" id="img-bedb3f0b-38" class="color_Original"/>
          </g>
          <g stroke="#FFFFFF" fill="#00BFFF" id="img-bedb3f0b-39">
            <use xlink:href="#img-bedb3f0b-40" x="116.17" y="184.43" id="img-bedb3f0b-41" class="color_Original"/>
          </g>
          <g stroke="#FFFFFF" fill="#00BFFF" id="img-bedb3f0b-42">
            <use xlink:href="#img-bedb3f0b-43" x="67.39" y="142.96" id="img-bedb3f0b-44" class="color_Original"/>
          </g>
          <g stroke="#FFFFFF" fill="#00BFFF" id="img-bedb3f0b-45">
            <use xlink:href="#img-bedb3f0b-46" x="27.47" y="18.54" id="img-bedb3f0b-47" class="color_Original"/>
          </g>
        </g>
      </g>
    </g>
  </g>
</g>
  <g class="guide ylabels" font-size="2.82" font-family="'PT Sans Caption','Helvetica Neue','Helvetica',sans-serif" fill="#6C606B" id="img-bedb3f0b-48">
    <text x="19.3" y="190.36" text-anchor="end" dy="0.35em" id="img-bedb3f0b-49">0.43</text>
    <text x="19.3" y="131.11" text-anchor="end" dy="0.35em" id="img-bedb3f0b-50">0.44</text>
    <text x="19.3" y="71.86" text-anchor="end" dy="0.35em" id="img-bedb3f0b-51">0.45</text>
    <text x="19.3" y="12.61" text-anchor="end" dy="0.35em" id="img-bedb3f0b-52">0.46</text>
  </g>
  <g font-size="3.88" font-family="'PT Sans','Helvetica Neue','Helvetica',sans-serif" fill="#564A55" stroke="#000000" stroke-opacity="0.000" id="img-bedb3f0b-53">
    <text x="8.81" y="99.48" text-anchor="middle" dy="0.35em" transform="rotate(-90, 8.81, 101.48)" id="img-bedb3f0b-54">B-V</text>
  </g>
  <g font-size="3.88" font-family="'PT Sans','Helvetica Neue','Helvetica',sans-serif" fill="#564A55" stroke="#000000" stroke-opacity="0.000" id="img-bedb3f0b-55">
    <text x="133.18" y="5" text-anchor="middle" dy="0.6em" id="img-bedb3f0b-56">Interpolation</text>
  </g>
</g>
<defs>
  <clipPath id="img-bedb3f0b-13">
  <path d="M20.31,10.61 L 246.06 10.61 246.06 192.36 20.31 192.36" />
</clipPath>
  <g id="img-bedb3f0b-34">
    <circle cx="0" cy="0" r="0.9" id="img-bedb3f0b-57"/>
  </g>
  <g id="img-bedb3f0b-37">
    <circle cx="0" cy="0" r="0.9" id="img-bedb3f0b-58"/>
  </g>
  <g id="img-bedb3f0b-40">
    <circle cx="0" cy="0" r="0.9" id="img-bedb3f0b-59"/>
  </g>
  <g id="img-bedb3f0b-43">
    <circle cx="0" cy="0" r="0.9" id="img-bedb3f0b-60"/>
  </g>
  <g id="img-bedb3f0b-46">
    <circle cx="0" cy="0" r="0.9" id="img-bedb3f0b-61"/>
  </g>
</defs>
</svg>
