<?xml version="1.0" encoding="UTF-8"?>
<svg xmlns="http://www.w3.org/2000/svg"
     xmlns:xlink="http://www.w3.org/1999/xlink"
     xmlns:gadfly="http://www.gadflyjl.org/ns"
     version="1.2"
     width="264.55mm" height="211.64mm" viewBox="0 0 264.55 211.64"
     stroke="none"
     fill="#000000"
     stroke-width="0.3"
     font-size="3.88"
>
<g class="plotroot xscalable yscalable" id="img-481f5b31-1">
  <g font-size="3.88" font-family="'PT Sans','Helvetica Neue','Helvetica',sans-serif" fill="#564A55" stroke="#000000" stroke-opacity="0.000" id="img-481f5b31-2">
    <text x="134.93" y="200.03" text-anchor="middle" dy="0.6em">Mv</text>
  </g>
  <g class="guide xlabels" font-size="2.82" font-family="'PT Sans Caption','Helvetica Neue','Helvetica',sans-serif" fill="#6C606B" id="img-481f5b31-3">
    <text x="23.98" y="193.36" text-anchor="middle" dy="0.6em">3.5</text>
    <text x="134.93" y="193.36" text-anchor="middle" dy="0.6em">4.0</text>
    <text x="245.89" y="193.36" text-anchor="middle" dy="0.6em">4.5</text>
  </g>
  <g class="guide colorkey" id="img-481f5b31-4">
    <g class="color_Polyfit" id="img-481f5b31-5">
      <g fill="#4C404B" font-size="2.82" font-family="'PT Sans','Helvetica Neue','Helvetica',sans-serif" id="img-481f5b31-6">
        <text x="251.7" y="103.3" dy="0.35em">Polyfit</text>
      </g>
      <g fill="#00BFFF" stroke="#000000" stroke-opacity="0.000" id="img-481f5b31-7">
        <rect x="248.89" y="102.39" width="1.81" height="1.81"/>
      </g>
    </g>
    <g fill="#362A35" font-size="3.88" font-family="'PT Sans','Helvetica Neue','Helvetica',sans-serif" stroke="#000000" stroke-opacity="0.000" id="img-481f5b31-8">
      <text x="248.89" y="99.48">index</text>
    </g>
  </g>
<g clip-path="url(#img-481f5b31-9)">
  <g id="img-481f5b31-10">
    <g pointer-events="visible" opacity="1" fill="#000000" fill-opacity="0.000" stroke="#000000" stroke-opacity="0.000" class="guide background" id="img-481f5b31-11">
      <rect x="21.98" y="10.61" width="225.91" height="181.74"/>
    </g>
    <g class="guide ygridlines xfixed" stroke-dasharray="0.5,0.5" stroke-width="0.2" stroke="#D0D0E0" id="img-481f5b31-12">
      <path fill="none" d="M21.98,190.36 L 247.89 190.36"/>
      <path fill="none" d="M21.98,154.81 L 247.89 154.81"/>
      <path fill="none" d="M21.98,119.26 L 247.89 119.26"/>
      <path fill="none" d="M21.98,83.71 L 247.89 83.71"/>
      <path fill="none" d="M21.98,48.16 L 247.89 48.16"/>
      <path fill="none" d="M21.98,12.61 L 247.89 12.61"/>
    </g>
    <g class="guide xgridlines yfixed" stroke-dasharray="0.5,0.5" stroke-width="0.2" stroke="#D0D0E0" id="img-481f5b31-13">
      <path fill="none" d="M23.98,10.61 L 23.98 192.36"/>
      <path fill="none" d="M134.93,10.61 L 134.93 192.36"/>
      <path fill="none" d="M245.89,10.61 L 245.89 192.36"/>
    </g>
    <g class="plotpanel" id="img-481f5b31-14">
      <g stroke-width="0.3" fill="#000000" fill-opacity="0.000" class="geometry color_Polyfit" stroke-dasharray="none" stroke="#00BFFF" id="img-481f5b31-15">
        <path fill="none" d="M58,33.94 L 60.22 34.05 62.44 34.81 64.65 36.18 66.87 38.11 69.09 40.54 71.31 43.43 73.53 46.73 75.75 50.41 77.97 54.41 80.19 58.71 82.41 63.24 84.63 67.99 86.85 72.9 89.07 77.95 91.28 83.1 93.5 88.31 95.72 93.56 97.94 98.81 100.16 104.03 102.38 109.2 104.6 114.28 106.82 119.26 109.04 124.1 111.26 128.79 113.48 133.31 115.69 137.62 117.91 141.72 120.13 145.59 122.35 149.21 124.57 152.56 126.79 155.64 129.01 158.42 131.23 160.9 133.45 163.07 135.67 164.93 137.89 166.45 140.1 167.64 142.32 168.5 144.54 169.02 146.76 169.19 148.98 169.03 151.2 168.52 153.42 167.67 155.64 166.49 157.86 164.98 160.08 163.14 162.3 160.99 164.52 158.53 166.73 155.78 168.95 152.74 171.17 149.42 173.39 145.85 175.61 142.03 177.83 137.99 180.05 133.74 182.27 129.3 184.49 124.69 186.71 119.93 188.93 115.06 191.14 110.08 193.36 105.04 195.58 99.95 197.8 94.84 200.02 89.75 202.24 84.71 204.46 79.75 206.68 74.89 208.9 70.19 211.12 65.67 213.34 61.38 215.55 57.34 217.77 53.61 219.99 50.23 222.21 47.23 224.43 44.67 226.65 42.58 228.87 41.03 231.09 40.04 233.31 39.69 235.53 40 237.75 41.05"/>
      </g>
      <g class="geometry" id="img-481f5b31-16">
        <g class="color_RGBA{Float32}(0.0f0,0.74736935f0,1.0f0,1.0f0)" stroke-width="0.3" id="img-481f5b31-17">
          <g stroke="#FFFFFF" fill="#00BFFF" id="img-481f5b31-18">
            <use xlink:href="#img-481f5b31-19" x="237.75" y="41.05"/>
          </g>
          <g stroke="#FFFFFF" fill="#00BFFF" id="img-481f5b31-20">
            <use xlink:href="#img-481f5b31-21" x="193.36" y="105.04"/>
          </g>
          <g stroke="#FFFFFF" fill="#00BFFF" id="img-481f5b31-22">
            <use xlink:href="#img-481f5b31-23" x="148.98" y="169.03"/>
          </g>
          <g stroke="#FFFFFF" fill="#00BFFF" id="img-481f5b31-24">
            <use xlink:href="#img-481f5b31-25" x="106.82" y="119.26"/>
          </g>
          <g stroke="#FFFFFF" fill="#00BFFF" id="img-481f5b31-26">
            <use xlink:href="#img-481f5b31-27" x="58" y="33.94"/>
          </g>
        </g>
      </g>
    </g>
  </g>
</g>
  <g class="guide ylabels" font-size="2.82" font-family="'PT Sans Caption','Helvetica Neue','Helvetica',sans-serif" fill="#6C606B" id="img-481f5b31-28">
    <text x="20.98" y="190.36" text-anchor="end" dy="0.35em">0.410</text>
    <text x="20.98" y="154.81" text-anchor="end" dy="0.35em">0.415</text>
    <text x="20.98" y="119.26" text-anchor="end" dy="0.35em">0.420</text>
    <text x="20.98" y="83.71" text-anchor="end" dy="0.35em">0.425</text>
    <text x="20.98" y="48.16" text-anchor="end" dy="0.35em">0.430</text>
    <text x="20.98" y="12.61" text-anchor="end" dy="0.35em">0.435</text>
  </g>
  <g font-size="3.88" font-family="'PT Sans','Helvetica Neue','Helvetica',sans-serif" fill="#564A55" stroke="#000000" stroke-opacity="0.000" id="img-481f5b31-29">
    <text x="8.81" y="99.48" text-anchor="middle" dy="0.35em" transform="rotate(-90, 8.81, 101.48)">B-V</text>
  </g>
  <g font-size="3.88" font-family="'PT Sans','Helvetica Neue','Helvetica',sans-serif" fill="#564A55" stroke="#000000" stroke-opacity="0.000" id="img-481f5b31-30">
    <text x="134.93" y="5" text-anchor="middle" dy="0.6em">Interpolation</text>
  </g>
</g>
<defs>
  <clipPath id="img-481f5b31-9">
  <path d="M21.98,10.61 L 247.89 10.61 247.89 192.36 21.98 192.36" />
</clipPath>
  <g id="img-481f5b31-19">
    <circle cx="0" cy="0" r="0.9"/>
  </g>
  <g id="img-481f5b31-21">
    <circle cx="0" cy="0" r="0.9"/>
  </g>
  <g id="img-481f5b31-23">
    <circle cx="0" cy="0" r="0.9"/>
  </g>
  <g id="img-481f5b31-25">
    <circle cx="0" cy="0" r="0.9"/>
  </g>
  <g id="img-481f5b31-27">
    <circle cx="0" cy="0" r="0.9"/>
  </g>
</defs>
</svg>
