<?xml version="1.0" encoding="UTF-8"?>
<svg xmlns="http://www.w3.org/2000/svg"
     xmlns:xlink="http://www.w3.org/1999/xlink"
     xmlns:gadfly="http://www.gadflyjl.org/ns"
     version="1.2"
     width="264.55mm" height="264.55mm" viewBox="0 0 264.55 264.55"
     stroke="none"
     fill="#000000"
     stroke-width="0.3"
     font-size="3.88"
>
<g class="plotroot xscalable yscalable" id="img-0e647004-1">
  <g font-size="3.88" font-family="'PT Sans','Helvetica Neue','Helvetica',sans-serif" fill="#564A55" stroke="#000000" stroke-opacity="0.000" id="img-0e647004-2">
    <text x="133.41" y="252.94" text-anchor="middle" dy="0.6em">BV</text>
  </g>
  <g class="guide xlabels" font-size="2.82" font-family="'PT Sans Caption','Helvetica Neue','Helvetica',sans-serif" fill="#6C606B" id="img-0e647004-3">
    <text x="55.79" y="246.27" text-anchor="middle" dy="0.6em">0.5</text>
    <text x="175.21" y="246.27" text-anchor="middle" dy="0.6em">1.0</text>
  </g>
  <g class="guide colorkey" id="img-0e647004-4">
    <g fill="#4C404B" font-size="2.82" font-family="'PT Sans','Helvetica Neue','Helvetica',sans-serif" id="img-0e647004-5">
      <text x="252.68" y="107" dy="0.35em" id="img-0e647004-6" class="color_8gyr">8gyr</text>
      <text x="252.68" y="110.63" dy="0.35em" id="img-0e647004-7" class="color_9gyr">9gyr</text>
      <text x="252.68" y="114.25" dy="0.35em" id="img-0e647004-8" class="color_10gyr">10gyr</text>
      <text x="252.68" y="117.88" dy="0.35em" id="img-0e647004-9" class="color_11gyr">11gyr</text>
      <text x="252.68" y="121.51" dy="0.35em" id="img-0e647004-10" class="color_12gyr">12gyr</text>
      <text x="252.68" y="125.13" dy="0.35em" id="img-0e647004-11" class="color_13gyr">13gyr</text>
      <text x="252.68" y="128.76" dy="0.35em" id="img-0e647004-12" class="color_14gyr">14gyr</text>
      <text x="252.68" y="132.39" dy="0.35em" id="img-0e647004-13" class="color_15gyr">15gyr</text>
      <text x="252.68" y="136.01" dy="0.35em" id="img-0e647004-14" class="color_16gyr">16gyr</text>
      <text x="252.68" y="139.64" dy="0.35em" id="img-0e647004-15" class="color_17gyr">17gyr</text>
      <text x="252.68" y="143.27" dy="0.35em" id="img-0e647004-16" class="color_M3">M3</text>
      <text x="252.68" y="146.89" dy="0.35em" id="img-0e647004-17" class="color_M13">M13</text>
    </g>
    <g stroke="#000000" stroke-opacity="0.000" id="img-0e647004-18">
      <rect x="249.87" y="106.09" width="1.81" height="1.81" id="img-0e647004-19" fill="#00BFFF" class="color_8gyr"/>
      <rect x="249.87" y="109.72" width="1.81" height="1.81" id="img-0e647004-20" fill="#D4CA3A" class="color_9gyr"/>
      <rect x="249.87" y="113.35" width="1.81" height="1.81" id="img-0e647004-21" fill="#FF6DAE" class="color_10gyr"/>
      <rect x="249.87" y="116.97" width="1.81" height="1.81" id="img-0e647004-22" fill="#00B78D" class="color_11gyr"/>
      <rect x="249.87" y="120.6" width="1.81" height="1.81" id="img-0e647004-23" fill="#BEA9FF" class="color_12gyr"/>
      <rect x="249.87" y="124.23" width="1.81" height="1.81" id="img-0e647004-24" fill="#FF6765" class="color_13gyr"/>
      <rect x="249.87" y="127.85" width="1.81" height="1.81" id="img-0e647004-25" fill="#C6C6C6" class="color_14gyr"/>
      <rect x="249.87" y="131.48" width="1.81" height="1.81" id="img-0e647004-26" fill="#63DF75" class="color_15gyr"/>
      <rect x="249.87" y="135.11" width="1.81" height="1.81" id="img-0e647004-27" fill="#00E6D3" class="color_16gyr"/>
      <rect x="249.87" y="138.73" width="1.81" height="1.81" id="img-0e647004-28" fill="#E870DD" class="color_17gyr"/>
      <rect x="249.87" y="142.36" width="1.81" height="1.81" id="img-0e647004-29" fill="#93A649" class="color_M3"/>
      <rect x="249.87" y="145.99" width="1.81" height="1.81" id="img-0e647004-30" fill="#FF9A4B" class="color_M13"/>
    </g>
    <g fill="#362A35" font-size="3.88" font-family="'PT Sans','Helvetica Neue','Helvetica',sans-serif" stroke="#000000" stroke-opacity="0.000" id="img-0e647004-31">
      <text x="249.87" y="103.18" id="img-0e647004-32">index</text>
    </g>
  </g>
<g clip-path="url(#img-0e647004-33)">
  <g id="img-0e647004-34">
    <g pointer-events="visible" opacity="1" fill="#000000" fill-opacity="0.000" stroke="#000000" stroke-opacity="0.000" class="guide background" id="img-0e647004-35">
      <rect x="17.96" y="5" width="230.91" height="240.27" id="img-0e647004-36"/>
    </g>
    <g class="guide ygridlines xfixed" stroke-dasharray="0.5,0.5" stroke-width="0.2" stroke="#D0D0E0" id="img-0e647004-37">
      <path fill="none" d="M17.96,7 L 248.87 7" id="img-0e647004-38"/>
      <path fill="none" d="M17.96,66.07 L 248.87 66.07" id="img-0e647004-39"/>
      <path fill="none" d="M17.96,125.13 L 248.87 125.13" id="img-0e647004-40"/>
      <path fill="none" d="M17.96,184.2 L 248.87 184.2" id="img-0e647004-41"/>
      <path fill="none" d="M17.96,243.27 L 248.87 243.27" id="img-0e647004-42"/>
    </g>
    <g class="guide xgridlines yfixed" stroke-dasharray="0.5,0.5" stroke-width="0.2" stroke="#D0D0E0" id="img-0e647004-43">
      <path fill="none" d="M55.79,5 L 55.79 245.27" id="img-0e647004-44"/>
      <path fill="none" d="M175.21,5 L 175.21 245.27" id="img-0e647004-45"/>
    </g>
    <g class="plotpanel" id="img-0e647004-46">
      <g class="geometry" id="img-0e647004-47">
        <g stroke-width="0.3" id="img-0e647004-48">
          <g stroke="#FFFFFF" fill="#FF9A4B" id="img-0e647004-49">
            <use xlink:href="#img-0e647004-50" x="120.28" y="76.86" id="img-0e647004-51" class="color_M3"/>
          </g>
          <g stroke="#FFFFFF" fill="#FF9A4B" id="img-0e647004-52">
            <use xlink:href="#img-0e647004-53" x="131.26" y="71.07" id="img-0e647004-54" class="color_M3"/>
          </g>
          <g stroke="#FFFFFF" fill="#FF9A4B" id="img-0e647004-55">
            <use xlink:href="#img-0e647004-56" x="144.4" y="65.04" id="img-0e647004-57" class="color_M3"/>
          </g>
          <g stroke="#FFFFFF" fill="#FF9A4B" id="img-0e647004-58">
            <use xlink:href="#img-0e647004-59" x="160.4" y="59.14" id="img-0e647004-60" class="color_M3"/>
          </g>
          <g stroke="#FFFFFF" fill="#93A649" id="img-0e647004-61">
            <use xlink:href="#img-0e647004-62" x="155.15" y="154" id="img-0e647004-63" class="color_M3"/>
          </g>
          <g stroke="#FFFFFF" fill="#93A649" id="img-0e647004-64">
            <use xlink:href="#img-0e647004-65" x="144.16" y="151.75" id="img-0e647004-66" class="color_M3"/>
          </g>
          <g stroke="#FFFFFF" fill="#93A649" id="img-0e647004-67">
            <use xlink:href="#img-0e647004-68" x="138.91" y="149.39" id="img-0e647004-69" class="color_M3"/>
          </g>
          <g stroke="#FFFFFF" fill="#93A649" id="img-0e647004-70">
            <use xlink:href="#img-0e647004-71" x="132.46" y="147.26" id="img-0e647004-72" class="color_M3"/>
          </g>
          <g stroke="#FFFFFF" fill="#93A649" id="img-0e647004-73">
            <use xlink:href="#img-0e647004-74" x="120.99" y="144.78" id="img-0e647004-75" class="color_M3"/>
          </g>
          <g stroke="#FFFFFF" fill="#93A649" id="img-0e647004-76">
            <use xlink:href="#img-0e647004-77" x="109.29" y="142.42" id="img-0e647004-78" class="color_M3"/>
          </g>
          <g stroke="#FFFFFF" fill="#93A649" id="img-0e647004-79">
            <use xlink:href="#img-0e647004-80" x="99.74" y="140.06" id="img-0e647004-81" class="color_M3"/>
          </g>
          <g stroke="#FFFFFF" fill="#93A649" id="img-0e647004-82">
            <use xlink:href="#img-0e647004-83" x="89.94" y="137.69" id="img-0e647004-84" class="color_M3"/>
          </g>
          <g stroke="#FFFFFF" fill="#93A649" id="img-0e647004-85">
            <use xlink:href="#img-0e647004-86" x="80.15" y="135.45" id="img-0e647004-87" class="color_M3"/>
          </g>
          <g stroke="#FFFFFF" fill="#93A649" id="img-0e647004-88">
            <use xlink:href="#img-0e647004-89" x="72.51" y="132.97" id="img-0e647004-90" class="color_M3"/>
          </g>
          <g stroke="#FFFFFF" fill="#93A649" id="img-0e647004-91">
            <use xlink:href="#img-0e647004-92" x="64.62" y="130.72" id="img-0e647004-93" class="color_M3"/>
          </g>
          <g stroke="#FFFFFF" fill="#93A649" id="img-0e647004-94">
            <use xlink:href="#img-0e647004-95" x="58.89" y="128.24" id="img-0e647004-96" class="color_M3"/>
          </g>
          <g stroke="#FFFFFF" fill="#93A649" id="img-0e647004-97">
            <use xlink:href="#img-0e647004-98" x="51.49" y="125.88" id="img-0e647004-99" class="color_M3"/>
          </g>
          <g stroke="#FFFFFF" fill="#93A649" id="img-0e647004-100">
            <use xlink:href="#img-0e647004-101" x="47.19" y="123.4" id="img-0e647004-102" class="color_M3"/>
          </g>
          <g stroke="#FFFFFF" fill="#93A649" id="img-0e647004-103">
            <use xlink:href="#img-0e647004-104" x="43.6" y="121.27" id="img-0e647004-105" class="color_M3"/>
          </g>
          <g stroke="#FFFFFF" fill="#93A649" id="img-0e647004-106">
            <use xlink:href="#img-0e647004-107" x="39.31" y="118.79" id="img-0e647004-108" class="color_M3"/>
          </g>
          <g stroke="#FFFFFF" fill="#93A649" id="img-0e647004-109">
            <use xlink:href="#img-0e647004-110" x="37.16" y="116.43" id="img-0e647004-111" class="color_M3"/>
          </g>
          <g stroke="#FFFFFF" fill="#93A649" id="img-0e647004-112">
            <use xlink:href="#img-0e647004-113" x="35.01" y="114.07" id="img-0e647004-114" class="color_M3"/>
          </g>
          <g stroke="#FFFFFF" fill="#93A649" id="img-0e647004-115">
            <use xlink:href="#img-0e647004-116" x="36.68" y="111.82" id="img-0e647004-117" class="color_M3"/>
          </g>
          <g stroke="#FFFFFF" fill="#93A649" id="img-0e647004-118">
            <use xlink:href="#img-0e647004-119" x="39.54" y="109.22" id="img-0e647004-120" class="color_M3"/>
          </g>
          <g stroke="#FFFFFF" fill="#93A649" id="img-0e647004-121">
            <use xlink:href="#img-0e647004-122" x="54.59" y="106.86" id="img-0e647004-123" class="color_M3"/>
          </g>
          <g stroke="#FFFFFF" fill="#93A649" id="img-0e647004-124">
            <use xlink:href="#img-0e647004-125" x="77.04" y="104.73" id="img-0e647004-126" class="color_M3"/>
          </g>
          <g stroke="#FFFFFF" fill="#93A649" id="img-0e647004-127">
            <use xlink:href="#img-0e647004-128" x="84.21" y="102.37" id="img-0e647004-129" class="color_M3"/>
          </g>
          <g stroke="#FFFFFF" fill="#93A649" id="img-0e647004-130">
            <use xlink:href="#img-0e647004-131" x="90.18" y="99.77" id="img-0e647004-132" class="color_M3"/>
          </g>
          <g stroke="#FFFFFF" fill="#93A649" id="img-0e647004-133">
            <use xlink:href="#img-0e647004-134" x="90.18" y="97.41" id="img-0e647004-135" class="color_M3"/>
          </g>
          <g stroke="#FFFFFF" fill="#93A649" id="img-0e647004-136">
            <use xlink:href="#img-0e647004-137" x="94.72" y="95.52" id="img-0e647004-138" class="color_M3"/>
          </g>
          <g stroke="#FFFFFF" fill="#93A649" id="img-0e647004-139">
            <use xlink:href="#img-0e647004-140" x="97.35" y="92.21" id="img-0e647004-141" class="color_M3"/>
          </g>
          <g stroke="#FFFFFF" fill="#93A649" id="img-0e647004-142">
            <use xlink:href="#img-0e647004-143" x="100.45" y="90.32" id="img-0e647004-144" class="color_M3"/>
          </g>
          <g stroke="#FFFFFF" fill="#93A649" id="img-0e647004-145">
            <use xlink:href="#img-0e647004-146" x="104.04" y="86.9" id="img-0e647004-147" class="color_M3"/>
          </g>
          <g stroke="#FFFFFF" fill="#93A649" id="img-0e647004-148">
            <use xlink:href="#img-0e647004-149" x="111.68" y="81.11" id="img-0e647004-150" class="color_M3"/>
          </g>
          <g stroke="#FFFFFF" fill="#93A649" id="img-0e647004-151">
            <use xlink:href="#img-0e647004-152" x="122.9" y="75.44" id="img-0e647004-153" class="color_M3"/>
          </g>
          <g stroke="#FFFFFF" fill="#93A649" id="img-0e647004-154">
            <use xlink:href="#img-0e647004-155" x="136.52" y="68.47" id="img-0e647004-156" class="color_M3"/>
          </g>
          <g stroke="#FFFFFF" fill="#93A649" id="img-0e647004-157">
            <use xlink:href="#img-0e647004-158" x="152.04" y="62.33" id="img-0e647004-159" class="color_M3"/>
          </g>
          <g stroke="#FFFFFF" fill="#FF9A4B" id="img-0e647004-160">
            <use xlink:href="#img-0e647004-161" x="135.09" y="150.57" id="img-0e647004-162" class="color_M3"/>
          </g>
          <g stroke="#FFFFFF" fill="#FF9A4B" id="img-0e647004-163">
            <use xlink:href="#img-0e647004-164" x="126.25" y="148.33" id="img-0e647004-165" class="color_M3"/>
          </g>
          <g stroke="#FFFFFF" fill="#FF9A4B" id="img-0e647004-166">
            <use xlink:href="#img-0e647004-167" x="117.41" y="145.96" id="img-0e647004-168" class="color_M3"/>
          </g>
          <g stroke="#FFFFFF" fill="#FF9A4B" id="img-0e647004-169">
            <use xlink:href="#img-0e647004-170" x="105.23" y="143.6" id="img-0e647004-171" class="color_M3"/>
          </g>
          <g stroke="#FFFFFF" fill="#FF9A4B" id="img-0e647004-172">
            <use xlink:href="#img-0e647004-173" x="97.11" y="141.12" id="img-0e647004-174" class="color_M3"/>
          </g>
          <g stroke="#FFFFFF" fill="#FF9A4B" id="img-0e647004-175">
            <use xlink:href="#img-0e647004-176" x="87.32" y="138.88" id="img-0e647004-177" class="color_M3"/>
          </g>
          <g stroke="#FFFFFF" fill="#FF9A4B" id="img-0e647004-178">
            <use xlink:href="#img-0e647004-179" x="79.19" y="136.63" id="img-0e647004-180" class="color_M3"/>
          </g>
          <g stroke="#FFFFFF" fill="#FF9A4B" id="img-0e647004-181">
            <use xlink:href="#img-0e647004-182" x="69.88" y="134.15" id="img-0e647004-183" class="color_M3"/>
          </g>
          <g stroke="#FFFFFF" fill="#FF9A4B" id="img-0e647004-184">
            <use xlink:href="#img-0e647004-185" x="62" y="131.79" id="img-0e647004-186" class="color_M3"/>
          </g>
          <g stroke="#FFFFFF" fill="#FF9A4B" id="img-0e647004-187">
            <use xlink:href="#img-0e647004-188" x="56.5" y="129.31" id="img-0e647004-189" class="color_M3"/>
          </g>
          <g stroke="#FFFFFF" fill="#FF9A4B" id="img-0e647004-190">
            <use xlink:href="#img-0e647004-191" x="51.01" y="127.18" id="img-0e647004-192" class="color_M3"/>
          </g>
          <g stroke="#FFFFFF" fill="#FF9A4B" id="img-0e647004-193">
            <use xlink:href="#img-0e647004-194" x="47.19" y="124.82" id="img-0e647004-195" class="color_M3"/>
          </g>
          <g stroke="#FFFFFF" fill="#FF9A4B" id="img-0e647004-196">
            <use xlink:href="#img-0e647004-197" x="44.32" y="122.34" id="img-0e647004-198" class="color_M3"/>
          </g>
          <g stroke="#FFFFFF" fill="#FF9A4B" id="img-0e647004-199">
            <use xlink:href="#img-0e647004-200" x="41.22" y="119.97" id="img-0e647004-201" class="color_M3"/>
          </g>
          <g stroke="#FFFFFF" fill="#FF9A4B" id="img-0e647004-202">
            <use xlink:href="#img-0e647004-203" x="39.31" y="117.37" id="img-0e647004-204" class="color_M3"/>
          </g>
          <g stroke="#FFFFFF" fill="#FF9A4B" id="img-0e647004-205">
            <use xlink:href="#img-0e647004-206" x="39.31" y="115.37" id="img-0e647004-207" class="color_M3"/>
          </g>
          <g stroke="#FFFFFF" fill="#FF9A4B" id="img-0e647004-208">
            <use xlink:href="#img-0e647004-209" x="40.98" y="112.77" id="img-0e647004-210" class="color_M3"/>
          </g>
          <g stroke="#FFFFFF" fill="#FF9A4B" id="img-0e647004-211">
            <use xlink:href="#img-0e647004-212" x="45.99" y="110.64" id="img-0e647004-213" class="color_M3"/>
          </g>
          <g stroke="#FFFFFF" fill="#FF9A4B" id="img-0e647004-214">
            <use xlink:href="#img-0e647004-215" x="62.24" y="108.16" id="img-0e647004-216" class="color_M3"/>
          </g>
          <g stroke="#FFFFFF" fill="#FF9A4B" id="img-0e647004-217">
            <use xlink:href="#img-0e647004-218" x="81.58" y="105.8" id="img-0e647004-219" class="color_M3"/>
          </g>
          <g stroke="#FFFFFF" fill="#FF9A4B" id="img-0e647004-220">
            <use xlink:href="#img-0e647004-221" x="85.88" y="103.32" id="img-0e647004-222" class="color_M3"/>
          </g>
          <g stroke="#FFFFFF" fill="#FF9A4B" id="img-0e647004-223">
            <use xlink:href="#img-0e647004-224" x="87.79" y="100.95" id="img-0e647004-225" class="color_M3"/>
          </g>
          <g stroke="#FFFFFF" fill="#FF9A4B" id="img-0e647004-226">
            <use xlink:href="#img-0e647004-227" x="91.38" y="99.06" id="img-0e647004-228" class="color_M3"/>
          </g>
          <g stroke="#FFFFFF" fill="#FF9A4B" id="img-0e647004-229">
            <use xlink:href="#img-0e647004-230" x="94.72" y="94.81" id="img-0e647004-231" class="color_M3"/>
          </g>
          <g stroke="#FFFFFF" fill="#FF9A4B" id="img-0e647004-232">
            <use xlink:href="#img-0e647004-233" x="102.6" y="88.55" id="img-0e647004-234" class="color_M3"/>
          </g>
          <g stroke="#FFFFFF" fill="#FF9A4B" id="img-0e647004-235">
            <use xlink:href="#img-0e647004-236" x="110.48" y="82.88" id="img-0e647004-237" class="color_M3"/>
          </g>
          <g stroke="#FFFFFF" fill="#FF9A4B" id="img-0e647004-238">
            <use xlink:href="#img-0e647004-239" x="120.28" y="76.86" id="img-0e647004-240" class="color_M3"/>
          </g>
          <g stroke="#FFFFFF" fill="#FF9A4B" id="img-0e647004-241">
            <use xlink:href="#img-0e647004-242" x="131.26" y="71.07" id="img-0e647004-243" class="color_M3"/>
          </g>
          <g stroke="#FFFFFF" fill="#FF9A4B" id="img-0e647004-244">
            <use xlink:href="#img-0e647004-245" x="144.4" y="65.04" id="img-0e647004-246" class="color_M3"/>
          </g>
          <g stroke="#FFFFFF" fill="#FF9A4B" id="img-0e647004-247">
            <use xlink:href="#img-0e647004-248" x="160.4" y="59.14" id="img-0e647004-249" class="color_M3"/>
          </g>
          <g stroke="#FFFFFF" fill="#93A649" id="img-0e647004-250">
            <use xlink:href="#img-0e647004-251" x="155.15" y="154" id="img-0e647004-252" class="color_M3"/>
          </g>
          <g stroke="#FFFFFF" fill="#93A649" id="img-0e647004-253">
            <use xlink:href="#img-0e647004-254" x="144.16" y="151.75" id="img-0e647004-255" class="color_M3"/>
          </g>
          <g stroke="#FFFFFF" fill="#93A649" id="img-0e647004-256">
            <use xlink:href="#img-0e647004-257" x="138.91" y="149.39" id="img-0e647004-258" class="color_M3"/>
          </g>
          <g stroke="#FFFFFF" fill="#93A649" id="img-0e647004-259">
            <use xlink:href="#img-0e647004-260" x="132.46" y="147.26" id="img-0e647004-261" class="color_M3"/>
          </g>
          <g stroke="#FFFFFF" fill="#93A649" id="img-0e647004-262">
            <use xlink:href="#img-0e647004-263" x="120.99" y="144.78" id="img-0e647004-264" class="color_M3"/>
          </g>
          <g stroke="#FFFFFF" fill="#93A649" id="img-0e647004-265">
            <use xlink:href="#img-0e647004-266" x="109.29" y="142.42" id="img-0e647004-267" class="color_M3"/>
          </g>
          <g stroke="#FFFFFF" fill="#93A649" id="img-0e647004-268">
            <use xlink:href="#img-0e647004-269" x="99.74" y="140.06" id="img-0e647004-270" class="color_M3"/>
          </g>
          <g stroke="#FFFFFF" fill="#93A649" id="img-0e647004-271">
            <use xlink:href="#img-0e647004-272" x="89.94" y="137.69" id="img-0e647004-273" class="color_M3"/>
          </g>
          <g stroke="#FFFFFF" fill="#93A649" id="img-0e647004-274">
            <use xlink:href="#img-0e647004-275" x="80.15" y="135.45" id="img-0e647004-276" class="color_M3"/>
          </g>
          <g stroke="#FFFFFF" fill="#93A649" id="img-0e647004-277">
            <use xlink:href="#img-0e647004-278" x="72.51" y="132.97" id="img-0e647004-279" class="color_M3"/>
          </g>
          <g stroke="#FFFFFF" fill="#93A649" id="img-0e647004-280">
            <use xlink:href="#img-0e647004-281" x="64.62" y="130.72" id="img-0e647004-282" class="color_M3"/>
          </g>
          <g stroke="#FFFFFF" fill="#93A649" id="img-0e647004-283">
            <use xlink:href="#img-0e647004-284" x="58.89" y="128.24" id="img-0e647004-285" class="color_M3"/>
          </g>
          <g stroke="#FFFFFF" fill="#93A649" id="img-0e647004-286">
            <use xlink:href="#img-0e647004-287" x="51.49" y="125.88" id="img-0e647004-288" class="color_M3"/>
          </g>
          <g stroke="#FFFFFF" fill="#93A649" id="img-0e647004-289">
            <use xlink:href="#img-0e647004-290" x="47.19" y="123.4" id="img-0e647004-291" class="color_M3"/>
          </g>
          <g stroke="#FFFFFF" fill="#93A649" id="img-0e647004-292">
            <use xlink:href="#img-0e647004-293" x="43.6" y="121.27" id="img-0e647004-294" class="color_M3"/>
          </g>
          <g stroke="#FFFFFF" fill="#93A649" id="img-0e647004-295">
            <use xlink:href="#img-0e647004-296" x="39.31" y="118.79" id="img-0e647004-297" class="color_M3"/>
          </g>
          <g stroke="#FFFFFF" fill="#93A649" id="img-0e647004-298">
            <use xlink:href="#img-0e647004-299" x="37.16" y="116.43" id="img-0e647004-300" class="color_M3"/>
          </g>
          <g stroke="#FFFFFF" fill="#93A649" id="img-0e647004-301">
            <use xlink:href="#img-0e647004-302" x="35.01" y="114.07" id="img-0e647004-303" class="color_M3"/>
          </g>
          <g stroke="#FFFFFF" fill="#93A649" id="img-0e647004-304">
            <use xlink:href="#img-0e647004-305" x="36.68" y="111.82" id="img-0e647004-306" class="color_M3"/>
          </g>
          <g stroke="#FFFFFF" fill="#93A649" id="img-0e647004-307">
            <use xlink:href="#img-0e647004-308" x="39.54" y="109.22" id="img-0e647004-309" class="color_M3"/>
          </g>
          <g stroke="#FFFFFF" fill="#93A649" id="img-0e647004-310">
            <use xlink:href="#img-0e647004-311" x="54.59" y="106.86" id="img-0e647004-312" class="color_M3"/>
          </g>
          <g stroke="#FFFFFF" fill="#93A649" id="img-0e647004-313">
            <use xlink:href="#img-0e647004-314" x="77.04" y="104.73" id="img-0e647004-315" class="color_M3"/>
          </g>
          <g stroke="#FFFFFF" fill="#93A649" id="img-0e647004-316">
            <use xlink:href="#img-0e647004-317" x="84.21" y="102.37" id="img-0e647004-318" class="color_M3"/>
          </g>
          <g stroke="#FFFFFF" fill="#93A649" id="img-0e647004-319">
            <use xlink:href="#img-0e647004-320" x="90.18" y="99.77" id="img-0e647004-321" class="color_M3"/>
          </g>
          <g stroke="#FFFFFF" fill="#93A649" id="img-0e647004-322">
            <use xlink:href="#img-0e647004-323" x="90.18" y="97.41" id="img-0e647004-324" class="color_M3"/>
          </g>
          <g stroke="#FFFFFF" fill="#93A649" id="img-0e647004-325">
            <use xlink:href="#img-0e647004-326" x="94.72" y="95.52" id="img-0e647004-327" class="color_M3"/>
          </g>
          <g stroke="#FFFFFF" fill="#93A649" id="img-0e647004-328">
            <use xlink:href="#img-0e647004-329" x="97.35" y="92.21" id="img-0e647004-330" class="color_M3"/>
          </g>
          <g stroke="#FFFFFF" fill="#93A649" id="img-0e647004-331">
            <use xlink:href="#img-0e647004-332" x="100.45" y="90.32" id="img-0e647004-333" class="color_M3"/>
          </g>
          <g stroke="#FFFFFF" fill="#93A649" id="img-0e647004-334">
            <use xlink:href="#img-0e647004-335" x="104.04" y="86.9" id="img-0e647004-336" class="color_M3"/>
          </g>
          <g stroke="#FFFFFF" fill="#93A649" id="img-0e647004-337">
            <use xlink:href="#img-0e647004-338" x="111.68" y="81.11" id="img-0e647004-339" class="color_M3"/>
          </g>
          <g stroke="#FFFFFF" fill="#93A649" id="img-0e647004-340">
            <use xlink:href="#img-0e647004-341" x="122.9" y="75.44" id="img-0e647004-342" class="color_M3"/>
          </g>
          <g stroke="#FFFFFF" fill="#93A649" id="img-0e647004-343">
            <use xlink:href="#img-0e647004-344" x="136.52" y="68.47" id="img-0e647004-345" class="color_M3"/>
          </g>
          <g stroke="#FFFFFF" fill="#93A649" id="img-0e647004-346">
            <use xlink:href="#img-0e647004-347" x="152.04" y="62.33" id="img-0e647004-348" class="color_M3"/>
          </g>
        </g>
      </g>
      <g stroke-width="0.3" fill="#000000" fill-opacity="0.000" stroke-dasharray="none" id="img-0e647004-349">
        <path fill="none" d="M220.84,195.11 L 219.64 194.04 218.69 192.95 217.73 191.87 216.54 190.78 215.58 189.72 214.39 188.62 213.19 187.53 212.24 186.47 211.04 185.44 209.85 184.41 208.65 183.4 207.46 182.36 206.5 181.33 205.31 180.28 204.35 179.25 202.92 178.21 201.73 177.18 200.53 176.14 199.34 175.1 198.14 174.07 196.95 173.05 195.28 172.03 193.37 171.04 191.69 170.06 190.02 169.13 188.35 168.18 186.68 167.26 185.01 166.33 183.1 165.39 181.42 164.45 179.51 163.53 177.6 162.59 175.69 161.65 173.3 160.86 170.68 160.04 168.29 159.32 165.9 158.6 163.51 157.89 160.88 157.16 158.49 156.44 156.11 155.71 153.48 155 151.09 154.29 148.46 153.54 145.83 152.82 143.21 152.1 140.58 151.39 137.95 150.66 135.33 149.94 132.7 149.22 129.83 148.5 127.2 147.77 124.58 147.13 122.19 146.48 119.56 145.85 116.93 145.23 114.31 144.59 111.68 143.95 109.05 143.31 106.66 142.64 103.8 141.99 101.17 141.35 98.54 140.69 95.91 140.03 93.29 139.37 90.66 138.69 88.03 138.01 85.4 137.36 83.25 136.72 80.87 136.08 78.48 135.43 76.33 134.78 73.94 134.15 71.79 133.48 69.4 132.8 67.25 132.06 65.1 131.31 63.19 130.57 61.04 129.82 58.89 129.05 56.74 128.31 54.83 127.51 52.92 126.7 51.01 125.91 49.58 125.12 48.14 124.33 46.71 123.53 45.28 122.69 44.08 121.85 42.65 121 41.46 120.14 40.26 119.24 39.07 118.36 37.87 117.51 36.44 116.63 35.25 115.75 34.53 114.8 33.81 113.87 33.1 112.88 32.62 111.93 32.62 111.43 32.86 110.93 33.1 110.46 33.57 110.01 34.05 109.59 34.77 109.18 35.48 108.82 36.44 108.49 37.16 108.17 38.11 107.89 39.07 107.61 40.02 107.37 40.98 107.13 41.93 106.92 42.89 106.72 44.08 106.54 45.04 106.37 46.23 106.22 47.19 106.08 48.62 105.95 50.05 105.84 51.49 105.72 52.92 105.63 54.35 105.53 55.79 105.44 56.98 105.36 58.41 105.29 59.85 105.22 61.28 105.14 62.71 105.07 64.15 105.01 65.58 104.93 66.77 104.86 68.21 104.78 69.64 104.7 70.83 104.6 72.27 104.47 73.46 104.33 74.89 104.18 76.09 103.99 77.28 103.77 78.24 103.53 79.43 103.28 80.63 102.99 81.82 102.68 82.78 102.36 83.73 101.98 84.45 101.6 85.17 101.21 85.64 100.92 86.6 100.37 87.55 99.72 88.27 99.05 88.99 98.4 89.7 97.73 90.18 97.05 90.9 96.37 91.61 95.67 92.09 94.99 92.81 94.31 93.29 93.61 93.76 92.93 94.48 92.21 95.2 91.54 95.68 90.84 96.39 90.15 97.11 89.48 97.82 88.77 98.3 88.09 99.02 87.41 99.97 86.76 100.69 86.07 101.41 85.39 102.12 84.7 102.84 84.02 103.56 83.31 104.51 82.64 105.47 81.99 106.18 81.33 107.14 80.62 108.1 79.96 109.05 79.34 110.01 78.62 111.2 78.04 112.16 77.35 113.11 76.7 114.31 76.05 115.5 75.35 116.69 74.75 118.13 74.12 119.56 73.49 121.23 72.81 122.67 72.23 124.1 71.63 125.77 71.02 127.44 70.34 129.11 69.7 130.79 69.15 132.46 68.46 133.65 67.89 132.7 68.09 131.74 68.35 131.03 68.52 131.98 68.24 131.98 68.17 133.18 67.73 134.85 67.24 136.52 66.69 137.95 66.17 139.62 65.66 141.3 65.16 142.97 64.63 144.4 64.12 146.07 63.6 147.98 63.1 149.66 62.59 151.33 62.05 153 61.54 154.67 61.07 156.58 60.57 158.26 60.05 160.17 59.52 161.84 59.04 163.75 58.53 165.66 58.07 167.33 57.51 169.24 57.02 171.15 56.58 173.06 56.05 174.98 55.56 176.89 55.08 178.8 54.65 180.71 54.12 182.86 53.66 184.77 53.18 186.92 52.69 189.55 52.23 192.17 51.84 194.8 51.34 197.43 50.92 200.05 50.6 202.68 50.15 205.31 49.68 207.94 49.33 210.56 48.82 213.19 48.43 215.58 48.02 218.21 47.6 220.84 47.15 223.22 46.69 225.85 46.36 228.24 45.87 230.63 45.52 233.02 44.99 235.64 44.61 238.27 44.25 241.62 43.88 244.96 43.5 248.06 43.11 251.41 42.71 254.75 42.48 258.1 42.04 261.2 41.79 264.55 41.32 267.89 41.06 271.23 40.55 274.82 40.27 278.16 39.97 281.5 39.68 284.85 39.36 288.43 39.04 291.77 38.71 295.36 38.36 298.7 38 302.28 37.92 306.82 37.6 311.6 37.27 316.38 37.24 321.15 36.76" id="img-0e647004-350" stroke="#00B78D" class="geometry color_11gyr"/>
        <path fill="none" d="M220.84,195.3 L 219.64 194.13 218.69 192.99 217.49 191.82 216.3 190.65 215.1 189.48 213.91 188.31 212.71 187.13 211.52 186.02 210.33 184.92 209.13 183.81 207.7 182.7 206.5 181.6 205.31 180.48 204.35 179.36 203.16 178.25 201.73 177.13 200.53 176.01 199.1 174.89 197.91 173.77 196.23 172.69 194.32 171.61 192.41 170.52 190.74 169.53 188.83 168.52 187.16 167.51 185.25 166.5 183.33 165.5 181.42 164.47 179.27 163.47 177.36 162.46 174.98 161.56 172.11 160.7 169.48 159.86 167.09 159.08 164.47 158.32 161.84 157.54 159.21 156.76 156.34 155.97 153.72 155.21 151.09 154.42 148.22 153.64 145.6 152.86 142.73 152.08 139.86 151.3 137 150.53 134.13 149.74 131.26 148.96 128.4 148.18 125.53 147.45 122.9 146.79 120.04 146.1 117.17 145.43 114.54 144.75 111.68 144.07 108.81 143.41 105.95 142.72 103.08 142.04 100.21 141.34 97.35 140.67 94.24 139.96 91.38 139.27 88.51 138.56 85.64 137.9 83.25 137.24 80.63 136.6 78 135.94 75.37 135.3 72.98 134.57 70.6 133.84 68.21 133.09 65.82 132.34 63.43 131.58 61.04 130.81 58.65 130.04 56.26 129.24 54.11 128.44 51.73 127.64 50.05 126.85 48.38 126.04 46.47 125.24 44.8 124.42 43.13 123.61 41.46 122.81 39.54 122 37.87 121.16 36.2 120.35 34.53 119.51 32.86 118.67 30.95 117.84 29.27 116.98 27.6 116.13 25.93 115.28 24.5 114.41 23.3 113.52 22.11 112.63 20.91 111.69 19.96 110.72 19.24 109.69 18.29 108.7 17.57 107.78 17.57 107.25 17.57 106.66 17.81 106.09 18.29 105.57 18.76 105.11 19.48 104.67 20.2 104.29 21.15 103.96 22.11 103.66 23.06 103.37 24.26 103.12 25.69 102.9 26.89 102.7 28.32 102.51 29.51 102.33 30.95 102.18 32.38 102.04 33.57 101.9 35.01 101.77 36.44 101.65 37.63 101.53 39.07 101.44 40.5 101.34 41.69 101.26 43.13 101.18 44.32 101.1 45.75 101.05 47.43 101 49.1 100.99 50.77 100.96 52.68 100.96 54.35 100.96 56.03 100.95 57.7 100.96 59.61 100.96 61.28 100.97 62.95 100.97 64.62 100.95 66.3 100.92 67.97 100.88 69.64 100.81 71.31 100.7 72.75 100.54 74.18 100.35 75.61 100.11 77.04 99.82 78.24 99.47 79.43 99.11 80.63 98.71 81.58 98.35 82.54 97.83 83.73 97.21 84.69 96.57 85.64 95.93 86.36 95.28 87.08 94.61 87.79 93.93 88.51 93.24 89.23 92.55 89.94 91.85 90.66 91.16 91.14 90.46 91.85 89.76 92.57 89.09 93.05 88.37 94 87.7 94.72 87.01 95.44 86.33 96.15 85.63 96.87 84.96 97.82 84.26 98.3 83.6 99.26 82.91 99.97 82.2 100.93 81.54 101.65 80.84 102.6 80.17 103.32 79.46 104.27 78.78 105.23 78.1 106.18 77.48 107.14 76.82 108.33 76.12 109.29 75.47 110.48 74.78 111.68 74.13 112.87 73.47 113.83 72.85 115.02 72.2 116.22 71.51 117.89 70.91 119.32 70.22 120.99 69.63 122.67 69 124.34 68.44 126.01 67.73 127.68 67.13 129.35 66.57 131.26 65.94 132.46 65.31 131.5 65.53 130.55 65.81 129.59 66.1 130.07 65.91 130.31 65.76 131.74 65.36 133.18 64.88 134.61 64.4 136.28 63.9 137.71 63.42 139.15 62.94 140.82 62.48 142.25 62.01 143.92 61.52 145.6 61.05 147.03 60.6 148.7 60.11 150.37 59.66 152.04 59.2 153.72 58.73 155.39 58.27 157.06 57.81 158.73 57.32 160.4 56.88 162.08 56.4 163.99 55.97 165.66 55.52 167.57 55.06 169.24 54.63 170.91 54.12 172.83 53.67 174.74 53.27 176.41 52.78 178.32 52.34 179.99 51.88 181.9 51.48 183.81 51 185.72 50.57 187.63 50.12 190.26 49.76 192.65 49.34 195.28 48.97 197.67 48.59 200.05 48.19 202.44 47.78 205.07 47.34 207.22 47 209.85 46.63 212.24 46.16 214.39 45.78 216.77 45.38 219.16 44.97 221.55 44.65 223.94 44.21 226.33 43.87 228.72 43.41 230.87 43.04 233.26 42.68 235.64 42.29 238.03 42.01 241.14 41.65 244.24 41.27 247.35 41.01 250.69 40.61 253.8 40.34 256.9 40.05 260.25 39.77 263.35 39.47 266.7 39.17 269.8 38.85 273.14 38.53 276.25 38.19 279.59 38.02 282.94 37.66 286.04 37.48 289.39 37.1 292.73 36.91 296.07 36.54 299.42 36.29" id="img-0e647004-351" stroke="#00BFFF" class="geometry color_8gyr"/>
        <path fill="none" d="M220.6,194.89 L 219.64 193.9 218.69 192.89 217.73 191.89 216.77 190.9 215.82 189.89 214.86 188.88 213.67 187.87 212.71 186.89 211.76 185.94 210.56 184.98 209.61 184.02 208.41 183.06 207.46 182.12 206.26 181.16 205.31 180.21 204.12 179.24 202.92 178.3 201.73 177.34 200.77 176.38 199.58 175.42 198.38 174.45 197.43 173.5 196.23 172.56 194.8 171.64 193.13 170.71 191.46 169.82 190.02 168.96 188.35 168.1 186.68 167.25 185.01 166.38 183.33 165.52 181.66 164.65 179.99 163.8 178.32 162.94 176.41 162.08 174.5 161.22 172.59 160.38 170.44 159.65 168.05 158.99 165.9 158.32 163.51 157.65 161.36 157 158.97 156.33 156.82 155.67 154.43 155.01 152.04 154.35 149.66 153.67 147.27 153 144.88 152.34 142.49 151.69 140.1 150.99 137.47 150.33 135.09 149.68 132.7 149.01 130.07 148.35 127.68 147.66 125.29 147.03 122.9 146.44 120.52 145.84 118.13 145.23 115.74 144.61 113.59 144.01 111.2 143.4 108.81 142.78 106.42 142.16 104.04 141.52 101.65 140.88 99.26 140.27 96.87 139.6 94.48 138.98 92.09 138.34 89.7 137.69 87.32 137.02 85.17 136.38 83.02 135.76 80.87 135.14 78.96 134.5 76.81 133.85 74.89 133.24 72.98 132.56 70.83 131.88 68.92 131.22 67.01 130.52 65.1 129.82 63.19 129.11 61.52 128.39 59.85 127.63 58.18 126.83 56.5 126.04 55.07 125.27 53.64 124.45 52.2 123.59 51.01 122.79 49.82 121.95 48.86 121.1 47.9 120.28 47.67 119.37 47.19 118.49 46.71 117.6 46.71 116.77 46.71 116.39 46.95 115.94 47.19 115.52 47.43 115.09 47.9 114.69 48.38 114.31 49.1 113.95 49.82 113.63 50.77 113.32 51.73 113.02 52.68 112.75 53.64 112.49 54.83 112.24 55.79 112.01 56.98 111.8 57.94 111.58 59.13 111.39 60.32 111.2 61.52 111.04 62.71 110.86 63.67 110.7 64.86 110.54 66.06 110.39 67.25 110.22 68.45 110.06 69.64 109.91 70.83 109.76 71.79 109.61 72.98 109.44 74.18 109.26 75.13 109.08 76.33 108.88 77.28 108.68 78.24 108.45 79.43 108.22 80.39 107.98 81.58 107.73 82.54 107.47 83.49 107.2 84.45 106.89 85.17 106.55 85.88 106.21 86.6 105.85 87.32 105.5 88.03 105.11 88.51 104.73 88.99 104.33 89.47 103.93 89.94 103.53 90.18 103.29 90.66 102.72 91.38 102.07 91.85 101.39 92.33 100.7 93.05 100.02 93.53 99.33 94 98.65 94.48 97.94 94.96 97.28 95.44 96.58 95.91 95.88 96.63 95.19 97.11 94.49 97.59 93.8 98.3 93.15 98.78 92.47 99.26 91.76 99.97 91.07 100.45 90.41 101.17 89.69 101.89 89.05 102.6 88.37 103.32 87.66 104.04 87 104.75 86.37 105.71 85.64 106.42 85.06 107.38 84.35 108.1 83.69 108.81 83.01 109.77 82.39 110.72 81.65 111.44 80.96 112.4 80.38 113.35 79.65 114.31 79.01 115.26 78.35 116.69 77.82 118.13 77.12 119.56 76.56 120.99 75.97 122.43 75.34 123.86 74.69 125.53 74.02 127.2 73.5 128.64 72.78 130.07 72.24 131.98 71.65 133.41 71 134.37 70.45 133.65 70.6 132.7 70.82 133.18 70.63 133.65 70.48 133.65 70.44 134.85 70.06 136.52 69.48 137.95 68.94 139.62 68.38 141.3 67.81 142.97 67.27 144.64 66.72 146.31 66.14 147.98 65.59 149.66 65.03 151.57 64.54 153.24 63.95 155.15 63.42 156.82 62.86 158.73 62.33 160.4 61.79 162.32 61.32 164.23 60.73 166.14 60.22 168.05 59.7 169.96 59.14 171.87 58.67 173.78 58.08 175.93 57.58 177.84 57.05 179.75 56.64 181.9 56.07 184.05 55.62 186.2 55.02 188.83 54.57 191.69 54.11 194.56 53.64 197.19 53.28 199.82 52.76 202.68 52.39 205.55 51.83 208.18 51.42 210.8 50.98 213.67 50.54 216.3 50.09 219.16 49.61 221.79 49.33 224.66 48.81 227.28 48.5 229.91 47.94 232.54 47.59 235.17 47.22 238.03 46.62 241.14 46.27 244.48 45.9 247.83 45.52 251.17 45.13 254.51 44.73 257.86 44.29 261.2 43.86 264.55 43.38 267.89 43.23 271.23 42.72 274.82 42.2 278.16 42.03 281.5 41.46 285.09 41.27 288.43 40.67 292.01 40.46 295.36 40.24 298.94 40.01 302.76 39.36 307.3 39.17 312.08 38.97 316.85 38.75 321.63 38.54 326.65 38.32 331.42 38.08 336.68 37.43" id="img-0e647004-352" stroke="#00E6D3" class="geometry color_16gyr"/>
        <path fill="none" d="M220.6,194.93 L 219.64 193.92 218.69 192.91 217.73 191.89 216.77 190.89 215.82 189.85 214.62 188.84 213.67 187.83 212.71 186.82 211.52 185.84 210.56 184.88 209.37 183.93 208.41 182.96 207.22 181.99 206.26 181.02 205.31 180.04 203.88 179.08 202.92 178.12 201.73 177.15 200.53 176.18 199.34 175.21 198.14 174.23 197.43 173.26 195.76 172.31 194.32 171.37 192.65 170.44 190.98 169.56 189.31 168.69 187.87 167.81 186.2 166.94 184.53 166.07 182.86 165.19 180.95 164.32 179.27 163.44 177.36 162.59 175.69 161.71 173.78 160.84 171.39 160.08 169.24 159.37 166.85 158.71 164.7 158.02 162.32 157.35 159.93 156.67 157.78 156 155.39 155.33 153 154.67 150.61 153.98 148.22 153.32 145.83 152.65 143.21 151.96 140.82 151.29 138.43 150.63 135.8 149.93 133.41 149.27 130.79 148.59 128.4 147.91 125.77 147.25 123.38 146.63 120.99 146.04 118.61 145.42 116.22 144.83 113.83 144.2 111.44 143.57 109.05 142.94 106.66 142.32 104.27 141.68 101.89 141.06 99.5 140.42 97.11 139.78 94.48 139.12 92.09 138.47 89.7 137.83 87.32 137.17 84.93 136.52 83.02 135.89 80.87 135.29 78.72 134.64 76.57 134.02 74.66 133.35 72.51 132.72 70.6 132.06 68.45 131.36 66.53 130.67 64.62 129.99 62.71 129.27 60.8 128.5 59.13 127.73 57.46 126.95 55.79 126.15 54.11 125.36 52.68 124.54 51.25 123.74 50.05 122.91 48.86 122.07 47.9 121.21 46.95 120.38 45.99 119.52 45.75 118.64 45.28 117.69 45.04 116.8 44.8 115.94 44.8 115.55 45.04 115.1 45.52 114.68 45.75 114.26 46.23 113.87 46.71 113.5 47.19 113.13 47.9 112.8 48.62 112.49 49.58 112.21 50.53 111.94 51.73 111.69 52.68 111.45 53.88 111.22 54.83 111 56.03 110.8 57.22 110.61 58.41 110.45 59.61 110.27 60.8 110.12 62 109.96 63.19 109.81 64.15 109.67 65.34 109.53 66.53 109.37 67.73 109.24 68.92 109.11 70.12 108.98 71.31 108.84 72.51 108.68 73.7 108.51 74.66 108.35 75.85 108.17 76.81 107.97 78 107.76 78.96 107.52 79.91 107.29 81.11 107.06 82.06 106.81 83.02 106.51 83.97 106.22 84.93 105.88 85.64 105.55 86.36 105.2 87.08 104.84 87.55 104.46 88.27 104.08 88.75 103.68 89.23 103.25 89.47 103.03 89.94 102.46 90.66 101.8 91.38 101.14 91.85 100.44 92.33 99.75 92.81 99.08 93.29 98.39 93.76 97.7 94.48 97.02 94.96 96.34 95.44 95.63 96.15 94.95 96.63 94.25 97.35 93.58 97.82 92.89 98.3 92.19 98.78 91.49 99.5 90.83 100.21 90.13 100.69 89.43 101.41 88.75 102.12 88.1 102.84 87.41 103.8 86.77 104.51 86.1 105.23 85.39 106.18 84.74 106.9 84.14 107.62 83.42 108.57 82.76 109.29 82.07 110.25 81.46 111.2 80.81 111.92 80.14 112.87 79.43 113.83 78.81 115.02 78.19 116.22 77.54 117.65 76.86 119.08 76.32 120.76 75.59 121.95 74.99 123.62 74.36 125.05 73.71 126.73 73.23 128.16 72.52 129.83 72.01 131.5 71.46 133.18 70.74 134.13 70.08 133.41 70.25 132.46 70.48 132.94 70.3 133.41 70.15 133.41 70.11 134.61 69.69 136.28 69.14 137.95 68.62 139.39 68.03 141.06 67.48 142.73 66.91 144.4 66.37 146.07 65.82 147.75 65.3 149.42 64.76 151.33 64.22 153 63.67 154.91 63.16 156.58 62.55 158.49 62.04 160.4 61.52 162.08 60.97 163.99 60.42 165.9 59.94 167.81 59.43 169.72 58.91 171.63 58.35 173.54 57.9 175.69 57.31 177.6 56.82 179.51 56.3 181.66 55.75 183.81 55.33 185.72 54.75 188.59 54.32 191.22 53.89 194.08 53.44 196.71 52.95 199.58 52.46 202.44 52.1 205.07 51.57 207.7 51.18 210.33 50.78 213.19 50.37 216.06 49.93 218.69 49.48 221.31 49.02 224.18 48.54 226.81 48.24 229.43 47.71 232.06 47.38 234.69 46.79 237.32 46.44 240.66 45.87 243.77 45.53 247.11 45.17 250.45 44.8 253.8 44.41 257.14 44.01 260.48 43.6 264.07 43.16 267.41 42.7 270.76 42.55 274.1 42.06 277.68 41.9 281.03 41.38 284.61 40.82 287.95 40.64 291.54 40.44 294.88 39.85 298.46 39.65 302.05 39.44 306.82 38.85 311.36 38.66 316.14 38.47 320.92 38.28 325.93 38.08 330.95 37.88 335.96 37.28" id="img-0e647004-353" stroke="#63DF75" class="geometry color_15gyr"/>
        <path fill="none" d="M220.6,195.06 L 219.64 193.99 218.69 192.93 217.73 191.87 216.54 190.8 215.58 189.74 214.39 188.68 213.43 187.61 212.24 186.57 211.28 185.57 210.09 184.57 208.89 183.55 207.7 182.55 206.74 181.53 205.55 180.5 204.59 179.5 203.4 178.48 201.97 177.45 200.77 176.45 199.58 175.43 198.62 174.42 197.43 173.39 195.99 172.4 194.08 171.43 192.41 170.45 190.74 169.53 189.07 168.61 187.4 167.68 185.72 166.77 184.05 165.85 182.38 164.94 180.47 164.03 178.56 163.12 176.89 162.19 174.74 161.3 172.35 160.51 169.96 159.76 167.57 159.04 165.18 158.34 162.79 157.64 160.4 156.91 158.02 156.21 155.39 155.52 153 154.81 150.61 154.11 147.98 153.39 145.36 152.68 142.97 151.97 140.34 151.26 137.71 150.57 135.09 149.85 132.46 149.15 129.83 148.44 127.2 147.73 124.58 147.11 122.19 146.46 119.56 145.84 117.17 145.2 114.54 144.59 112.16 143.94 109.53 143.31 106.9 142.68 104.27 142.03 101.89 141.39 99.26 140.71 96.63 140.06 94 139.4 91.38 138.72 88.75 138.06 86.36 137.38 83.97 136.77 81.82 136.14 79.67 135.49 77.28 134.85 75.13 134.21 72.98 133.54 70.6 132.91 68.45 132.23 66.3 131.51 64.39 130.78 62.24 130.02 60.32 129.26 58.41 128.51 56.26 127.72 54.59 126.93 52.68 126.12 51.01 125.33 49.58 124.54 48.14 123.73 46.95 122.9 45.52 122.08 44.32 121.22 43.13 120.38 42.17 119.47 40.98 118.62 40.02 117.7 39.31 116.78 38.59 115.84 38.11 114.89 37.39 113.95 36.92 113.07 37.16 112.66 37.16 112.17 37.39 111.71 37.87 111.28 38.35 110.85 38.83 110.46 39.54 110.09 40.26 109.75 40.98 109.44 41.93 109.15 42.65 108.87 43.6 108.61 44.56 108.37 45.28 108.15 46.23 107.93 47.19 107.74 48.62 107.58 49.82 107.44 51.25 107.29 52.44 107.16 53.88 107.05 55.07 106.93 56.5 106.81 57.7 106.7 59.13 106.61 60.56 106.51 61.76 106.42 63.19 106.34 64.39 106.26 65.82 106.16 67.01 106.07 68.45 105.96 69.64 105.85 70.83 105.75 72.27 105.63 73.46 105.49 74.66 105.33 75.85 105.16 76.81 104.96 78 104.74 79.19 104.51 80.39 104.25 81.34 103.98 82.3 103.68 83.25 103.35 84.21 102.99 84.93 102.62 85.64 102.24 86.36 101.85 86.84 101.57 87.55 101.01 88.27 100.36 88.99 99.7 89.7 99.04 90.42 98.34 90.9 97.67 91.61 96.99 92.09 96.27 92.81 95.59 93.29 94.9 94 94.22 94.48 93.53 94.96 92.85 95.68 92.15 96.39 91.46 96.87 90.79 97.59 90.08 98.3 89.41 98.78 88.74 99.5 88.04 100.21 87.38 100.93 86.66 101.65 86.02 102.6 85.36 103.32 84.66 104.04 83.99 104.99 83.29 105.71 82.63 106.66 81.93 107.62 81.27 108.57 80.67 109.29 79.95 110.25 79.29 111.2 78.59 112.16 77.95 113.35 77.29 114.31 76.71 115.5 75.99 116.93 75.36 118.37 74.71 119.8 74.17 121.47 73.47 122.9 72.87 124.34 72.24 126.01 71.61 127.68 71.06 129.11 70.38 130.79 69.74 132.46 69.14 133.65 68.52 132.94 68.71 131.98 68.96 131.5 69.08 132.22 68.8 132.46 68.75 133.65 68.32 135.33 67.77 136.76 67.24 138.43 66.72 139.86 66.2 141.54 65.65 143.21 65.13 144.88 64.59 146.55 64.08 148.22 63.56 150.13 63.08 151.81 62.56 153.48 62.03 155.15 61.47 157.06 61 158.73 60.5 160.64 59.94 162.32 59.49 164.23 58.94 166.14 58.46 168.05 57.94 169.96 57.41 171.87 56.93 173.78 56.45 175.69 55.94 177.6 55.49 179.51 54.95 181.66 54.48 183.57 53.98 185.48 53.46 187.87 53.07 190.74 52.67 193.37 52.14 195.99 51.7 198.62 51.25 201.25 50.91 203.88 50.43 206.5 50.04 209.13 49.65 212 49.11 214.62 48.68 217.01 48.38 219.88 47.92 222.51 47.45 224.9 47.09 227.52 46.59 229.91 46.21 232.3 45.82 234.69 45.25 237.32 44.84 240.66 44.45 243.77 44.24 247.11 43.83 250.45 43.4 253.8 42.95 257.14 42.7 260.25 42.2 263.59 41.92 266.93 41.64 270.28 41.34 273.86 40.79 277.2 40.47 280.55 40.14 283.89 39.79 287.48 39.44 290.82 39.36 294.4 38.98 297.75 38.6 301.33 38.2 305.63 38.13 310.41 37.76 314.94 37.4 319.96 37.35 324.74 36.93" id="img-0e647004-354" stroke="#BEA9FF" class="geometry color_12gyr"/>
        <path fill="none" d="M220.6,194.97 L 219.64 193.96 218.69 192.92 217.73 191.89 216.77 190.85 215.58 189.81 214.62 188.79 213.67 187.75 212.48 186.74 211.52 185.76 210.33 184.78 209.13 183.8 208.18 182.82 206.98 181.84 206.03 180.84 205.07 179.86 203.88 178.88 202.44 177.89 201.25 176.92 200.29 175.93 199.1 174.95 197.91 173.96 196.95 172.96 195.28 172.01 193.61 171.07 191.93 170.13 190.5 169.24 188.83 168.37 187.16 167.46 185.48 166.59 183.81 165.69 181.9 164.81 180.23 163.93 178.56 163.04 176.65 162.16 174.74 161.27 172.59 160.47 170.2 159.72 167.81 159.02 165.66 158.35 163.27 157.65 160.88 156.97 158.49 156.3 156.11 155.6 153.72 154.93 151.33 154.25 148.94 153.57 146.55 152.87 143.92 152.17 141.54 151.51 138.91 150.83 136.52 150.14 133.89 149.46 131.26 148.76 128.64 148.06 126.25 147.4 123.86 146.8 121.47 146.18 118.84 145.57 116.46 144.94 114.07 144.33 111.68 143.69 109.29 143.07 106.66 142.44 104.27 141.78 101.89 141.14 99.26 140.49 96.87 139.84 94.48 139.19 91.85 138.55 89.47 137.88 86.84 137.21 84.69 136.58 82.54 135.94 80.39 135.33 78.24 134.7 76.09 134.06 73.94 133.43 71.79 132.78 69.88 132.1 67.73 131.39 65.58 130.74 63.67 130.01 61.76 129.24 60.09 128.49 58.18 127.71 56.5 126.94 54.83 126.11 53.16 125.33 51.49 124.52 50.05 123.7 48.86 122.89 47.9 122.05 46.71 121.21 45.75 120.34 44.8 119.49 43.84 118.6 43.6 117.68 43.13 116.75 42.89 115.82 42.89 115.07 42.89 114.74 43.13 114.29 43.37 113.86 43.84 113.45 44.32 113.05 44.8 112.68 45.28 112.32 45.99 111.98 46.71 111.68 47.43 111.38 48.14 111.1 49.34 110.85 50.29 110.63 51.49 110.4 52.68 110.19 53.88 109.99 55.07 109.81 56.26 109.65 57.46 109.48 58.65 109.33 59.85 109.18 61.04 109.04 62.24 108.91 63.43 108.78 64.62 108.65 65.82 108.53 67.01 108.43 68.21 108.32 69.4 108.19 70.6 108.06 71.79 107.91 72.98 107.76 74.18 107.6 75.37 107.44 76.33 107.26 77.52 107.06 78.48 106.83 79.67 106.62 80.63 106.4 81.82 106.14 82.78 105.85 83.49 105.53 84.45 105.22 85.17 104.87 85.88 104.52 86.6 104.15 87.32 103.76 87.79 103.38 88.27 102.98 88.75 102.71 89.23 102.12 89.94 101.47 90.66 100.8 91.14 100.12 91.85 99.44 92.33 98.74 92.81 98.06 93.29 97.36 94 96.66 94.48 95.98 94.96 95.32 95.68 94.63 96.15 93.91 96.87 93.24 97.35 92.54 97.82 91.87 98.54 91.16 99.02 90.47 99.74 89.81 100.21 89.07 100.93 88.41 101.65 87.76 102.6 87.08 103.32 86.43 104.04 85.75 104.75 85.04 105.71 84.37 106.66 83.73 107.38 83.05 108.1 82.34 109.05 81.7 110.01 81.02 110.72 80.4 111.68 79.64 112.63 79.06 113.59 78.35 114.78 77.73 115.98 77.06 117.17 76.4 118.84 75.84 120.28 75.25 121.71 74.63 123.14 73.97 124.82 73.31 126.49 72.76 127.92 72.19 129.59 71.45 131.26 70.84 132.94 70.28 134.13 69.63 133.18 69.82 132.46 70.05 132.46 69.95 132.94 69.78 133.18 69.7 134.37 69.29 136.04 68.72 137.47 68.18 139.15 67.66 140.82 67.08 142.49 66.53 144.16 66 145.83 65.45 147.51 64.93 149.18 64.39 151.09 63.86 152.76 63.3 154.43 62.77 156.11 62.23 158.02 61.74 159.93 61.19 161.6 60.69 163.51 60.1 165.42 59.65 167.33 59.1 169.24 58.6 171.15 58.08 173.06 57.55 175.21 57.08 177.12 56.59 179.04 55.99 181.19 55.56 183.1 55.03 185.25 54.57 187.63 54 190.5 53.57 193.13 53.21 195.76 52.73 198.62 52.22 201.25 51.83 204.12 51.42 206.74 50.99 209.37 50.54 212.24 50.09 214.86 49.61 217.49 49.27 220.36 48.75 222.98 48.38 225.61 47.99 228.24 47.59 230.87 47.17 233.26 46.53 235.88 46.27 238.75 45.82 242.09 45.38 245.44 44.91 248.78 44.64 252.13 44.14 255.47 43.85 258.81 43.3 262.16 42.98 265.5 42.65 268.84 42.3 272.19 41.94 275.77 41.57 279.12 41.18 282.46 40.77 286.04 40.36 289.39 40.24 292.97 39.82 296.55 39.36 299.9 39.23 303.96 38.77 308.73 38.67 313.51 38.21 318.29 38.1 323.06 37.63 328.08 37.54 333.1 37.17" id="img-0e647004-355" stroke="#C6C6C6" class="geometry color_14gyr"/>
        <path fill="none" d="M220.84,195.23 L 219.64 194.11 218.69 192.96 217.49 191.83 216.3 190.71 215.34 189.56 214.15 188.43 212.95 187.29 211.76 186.21 210.56 185.12 209.37 184.05 208.18 182.96 206.98 181.88 205.79 180.8 204.59 179.71 203.64 178.62 202.2 177.54 201.01 176.46 199.58 175.37 198.38 174.28 197.19 173.2 195.28 172.16 193.61 171.1 191.69 170.08 190.02 169.09 188.11 168.12 186.44 167.14 184.53 166.16 182.62 165.18 180.71 164.21 178.8 163.21 176.89 162.25 174.5 161.38 171.87 160.53 169.24 159.72 166.85 158.98 164.23 158.22 161.6 157.47 159.21 156.7 156.58 155.95 153.96 155.19 151.33 154.43 148.46 153.69 145.83 152.92 143.21 152.16 140.34 151.39 137.71 150.65 134.85 149.89 131.98 149.11 129.35 148.36 126.49 147.63 123.86 146.96 120.99 146.31 118.37 145.65 115.74 144.99 112.87 144.33 110.25 143.66 107.38 142.98 104.51 142.33 101.89 141.65 99.02 140.97 96.15 140.3 93.29 139.62 90.42 138.93 87.79 138.23 85.17 137.6 82.54 136.95 80.15 136.31 77.76 135.66 75.13 135.01 72.75 134.32 70.6 133.6 68.21 132.86 65.82 132.1 63.67 131.36 61.28 130.58 59.13 129.81 56.98 129.02 54.59 128.23 52.44 127.42 50.77 126.66 49.1 125.85 47.43 125.09 45.75 124.28 44.08 123.46 42.65 122.6 40.98 121.77 39.31 120.94 37.87 120.14 36.2 119.31 34.53 118.46 32.86 117.63 31.42 116.76 29.75 115.92 28.32 115.04 26.89 114.16 25.45 113.22 24.5 112.23 23.78 111.25 23.06 110.25 22.82 109.26 22.82 108.72 22.82 108.18 23.06 107.66 23.54 107.19 24.26 106.75 25.21 106.34 26.17 105.96 27.12 105.63 28.08 105.33 29.27 105.05 30.23 104.78 31.42 104.54 32.62 104.32 33.81 104.13 35.01 103.94 36.2 103.77 37.39 103.63 38.83 103.5 40.02 103.36 41.22 103.24 42.41 103.11 43.6 103.01 44.8 102.9 45.99 102.81 47.43 102.73 49.1 102.68 50.77 102.63 52.44 102.58 53.88 102.56 55.55 102.53 57.22 102.51 58.89 102.49 60.32 102.46 62 102.45 63.67 102.43 65.1 102.4 66.77 102.37 68.21 102.31 69.64 102.23 71.31 102.12 72.75 101.99 74.18 101.84 75.37 101.62 76.81 101.39 78 101.1 79.19 100.82 80.39 100.48 81.58 100.09 82.54 99.7 83.25 99.37 84.21 98.82 85.17 98.21 86.12 97.56 87.08 96.91 87.79 96.24 88.51 95.58 89.23 94.9 89.94 94.21 90.42 93.52 91.14 92.84 91.61 92.14 92.33 91.45 92.81 90.76 93.53 90.07 94.24 89.36 94.96 88.7 95.68 87.99 96.39 87.31 97.11 86.63 97.82 85.96 98.78 85.29 99.5 84.58 100.21 83.89 100.93 83.22 101.65 82.51 102.6 81.83 103.32 81.15 104.27 80.45 105.23 79.78 106.18 79.14 107.14 78.47 108.1 77.82 109.05 77.16 110.25 76.54 111.2 75.81 112.4 75.2 113.59 74.49 114.54 73.84 115.74 73.24 117.17 72.53 118.61 71.9 120.28 71.28 121.71 70.73 123.38 70.04 125.05 69.43 126.73 68.88 128.4 68.17 130.07 67.53 131.74 66.95 132.94 66.33 131.98 66.56 131.03 66.85 130.07 67.12 130.79 66.86 131.03 66.73 132.22 66.3 133.89 65.81 135.33 65.32 137 64.81 138.43 64.32 140.1 63.83 141.77 63.34 143.21 62.84 144.88 62.36 146.55 61.85 148.22 61.35 149.9 60.88 151.57 60.4 153.24 59.94 154.91 59.42 156.82 58.97 158.49 58.46 160.17 57.97 162.08 57.54 163.75 57.02 165.42 56.53 167.33 56.1 169.24 55.65 171.15 55.17 172.83 54.69 174.74 54.18 176.65 53.73 178.56 53.26 180.47 52.84 182.14 52.33 184.29 51.88 186.2 51.42 188.59 51.04 190.98 50.58 193.61 50.19 196.23 49.8 198.62 49.37 201.25 48.95 203.64 48.59 206.26 48.12 208.65 47.73 211.28 47.34 213.67 46.93 216.06 46.49 218.45 46.05 221.07 45.71 223.46 45.24 225.85 44.87 228.24 44.5 230.63 44.11 233.02 43.7 235.41 43.28 237.79 42.85 241.14 42.59 244.24 42.18 247.59 41.88 250.69 41.44 254.04 41.13 257.14 40.81 260.48 40.48 263.83 40.14 266.93 39.79 270.28 39.6 273.62 39.24 276.97 38.86 280.31 38.66 283.65 38.26 287 38.03 290.34 37.81 293.69 37.37 297.27 37.14 300.61 36.89 304.67 36.69 309.45 36.39" id="img-0e647004-356" stroke="#D4CA3A" class="geometry color_9gyr"/>
        <path fill="none" d="M220.6,194.85 L 219.64 193.87 218.69 192.88 217.73 191.9 216.77 190.9 215.82 189.9 214.86 188.92 213.91 187.93 212.71 186.93 211.76 186.01 210.8 185.07 209.61 184.12 208.65 183.18 207.46 182.23 206.5 181.29 205.55 180.35 204.35 179.4 203.16 178.46 201.97 177.52 200.77 176.57 199.82 175.63 198.62 174.69 197.67 173.73 196.71 172.78 195.28 171.87 193.61 170.96 191.93 170.06 190.5 169.22 188.83 168.36 187.16 167.52 185.72 166.66 184.05 165.82 182.38 164.97 180.71 164.13 178.8 163.28 177.12 162.43 175.21 161.56 173.54 160.74 171.39 159.95 169.24 159.25 166.85 158.6 164.7 157.93 162.55 157.28 160.17 156.63 158.02 155.97 155.63 155.33 153.48 154.65 151.09 154 148.7 153.35 146.31 152.69 143.92 152.03 141.54 151.37 139.15 150.72 136.76 150.05 134.37 149.4 131.74 148.71 129.35 148.05 126.97 147.4 124.58 146.8 122.19 146.18 120.04 145.59 117.65 145 115.26 144.41 112.87 143.8 110.72 143.2 108.33 142.58 105.95 141.97 103.56 141.33 101.17 140.73 99.02 140.09 96.63 139.45 94.24 138.8 91.85 138.15 89.47 137.52 87.08 136.85 84.93 136.24 83.02 135.6 81.11 134.98 78.96 134.36 77.04 133.69 75.13 133.05 73.22 132.39 71.31 131.71 69.4 131.05 67.49 130.35 65.58 129.63 63.91 128.92 62 128.19 60.32 127.45 58.65 126.7 57.22 125.9 55.79 125.09 54.59 124.26 53.16 123.43 51.96 122.62 50.77 121.78 49.82 120.92 49.34 120.09 48.86 119.16 48.62 118.28 48.38 117.54 48.38 117.19 48.62 116.75 48.86 116.31 49.1 115.88 49.82 115.49 50.29 115.1 51.01 114.75 51.96 114.41 52.68 114.1 53.64 113.79 54.59 113.51 55.55 113.25 56.74 113 57.7 112.76 58.65 112.53 59.85 112.32 61.04 112.11 62 111.93 63.19 111.75 64.39 111.56 65.58 111.39 66.77 111.23 67.73 111.05 68.92 110.89 70.12 110.7 71.07 110.53 72.27 110.38 73.46 110.2 74.42 110.02 75.61 109.82 76.57 109.6 77.76 109.4 78.72 109.17 79.67 108.94 80.87 108.7 81.82 108.44 82.78 108.16 83.73 107.89 84.69 107.57 85.4 107.24 86.12 106.89 86.84 106.54 87.55 106.16 88.27 105.81 88.75 105.39 89.23 105 89.7 104.6 90.18 104.2 90.66 103.8 90.9 103.55 91.38 102.99 91.85 102.32 92.57 101.65 93.05 100.94 93.53 100.27 94 99.57 94.48 98.9 94.96 98.21 95.44 97.51 95.91 96.84 96.39 96.13 96.87 95.47 97.59 94.75 98.06 94.09 98.78 93.41 99.26 92.72 99.74 92.04 100.21 91.33 100.93 90.65 101.65 89.96 102.12 89.3 102.84 88.61 103.56 87.94 104.51 87.26 105.23 86.62 105.95 85.95 106.9 85.24 107.62 84.6 108.33 83.92 109.29 83.31 110.01 82.57 110.96 81.91 111.68 81.33 112.63 80.6 113.59 79.97 114.54 79.31 115.5 78.62 116.93 78.08 118.37 77.36 120.04 76.77 121.47 76.14 122.67 75.48 124.34 75 126.01 74.29 127.44 73.76 128.88 73.2 130.55 72.45 132.22 71.85 133.65 71.26 134.37 70.78 133.89 70.9 133.18 71.1 133.41 70.96 133.65 70.8 133.89 70.78 135.09 70.33 136.76 69.79 138.19 69.22 139.86 68.64 141.54 68.11 143.21 67.54 144.88 66.96 146.55 66.42 148.46 65.85 150.13 65.35 151.81 64.76 153.72 64.21 155.39 63.64 157.3 63.15 158.97 62.61 160.88 62.04 162.79 61.54 164.7 60.93 166.62 60.4 168.53 59.95 170.44 59.37 172.35 58.87 174.5 58.36 176.41 57.84 178.56 57.29 180.47 56.72 182.62 56.26 184.77 55.79 187.16 55.16 189.78 54.69 192.65 54.36 195.52 53.85 198.14 53.32 201.01 52.93 203.88 52.54 206.5 52.11 209.37 51.5 212 51.04 214.86 50.77 217.49 50.28 220.36 49.78 222.98 49.47 225.85 48.93 228.48 48.59 231.11 47.99 233.73 47.63 236.36 47.24 239.7 46.88 243.05 46.22 246.39 45.83 249.74 45.42 253.08 44.98 256.42 44.85 259.77 44.39 263.11 43.92 266.46 43.41 270.04 43.24 273.38 42.69 276.73 42.5 280.31 41.92 283.65 41.71 287.24 41.09 290.58 40.87 294.16 40.63 297.75 40.4 301.09 39.7 305.63 39.47 310.41 39.26 315.18 39.04 319.96 38.8 324.74 38.57 329.75 38.32 334.77 38.07 340.26 37.45" id="img-0e647004-357" stroke="#E870DD" class="geometry color_17gyr"/>
        <path fill="none" d="M220.6,195.01 L 219.64 193.97 218.69 192.94 217.73 191.88 216.54 190.84 215.58 189.8 214.62 188.74 213.43 187.7 212.48 186.66 211.28 185.68 210.33 184.7 209.13 183.69 207.94 182.7 206.74 181.69 205.79 180.7 204.83 179.69 203.64 178.69 202.44 177.7 201.01 176.7 200.05 175.69 198.86 174.7 197.67 173.7 196.47 172.72 194.8 171.74 193.13 170.78 191.46 169.86 189.78 168.96 188.11 168.05 186.44 167.15 184.77 166.24 183.1 165.34 181.19 164.45 179.51 163.55 177.6 162.64 175.69 161.74 173.78 160.89 171.39 160.12 169 159.39 166.62 158.72 164.23 158.02 161.84 157.31 159.45 156.63 157.06 155.94 154.67 155.24 152.28 154.55 149.66 153.84 147.27 153.15 144.88 152.44 142.25 151.76 139.62 151.06 137.24 150.37 134.61 149.68 131.98 148.97 129.35 148.29 126.73 147.59 124.34 146.96 121.95 146.34 119.32 145.71 116.93 145.11 114.54 144.48 111.92 143.84 109.53 143.22 106.9 142.57 104.51 141.93 101.89 141.3 99.5 140.64 96.87 139.98 94.24 139.34 91.85 138.67 89.23 138.01 86.84 137.32 84.45 136.7 82.3 136.08 80.15 135.42 78 134.8 75.85 134.15 73.7 133.52 71.31 132.87 69.16 132.2 67.01 131.55 65.1 130.81 63.19 130.06 61.28 129.3 59.37 128.55 57.46 127.77 55.55 126.99 53.88 126.21 51.96 125.37 50.53 124.58 49.34 123.77 48.14 122.95 46.71 122.12 45.75 121.27 44.56 120.41 43.6 119.53 42.65 118.66 41.69 117.76 41.22 116.82 40.98 115.91 40.74 114.95 40.5 114.12 40.74 113.76 40.98 113.31 41.46 112.88 41.69 112.45 42.17 112.03 42.65 111.64 43.13 111.28 43.84 110.93 44.56 110.61 45.28 110.31 45.99 110.02 46.95 109.76 47.67 109.52 48.86 109.29 50.05 109.09 51.25 108.9 52.44 108.72 53.64 108.57 54.83 108.43 56.03 108.29 57.22 108.16 58.65 108.02 59.85 107.9 61.04 107.78 62.24 107.66 63.67 107.55 64.86 107.46 66.06 107.37 67.25 107.25 68.68 107.14 69.88 107.01 71.07 106.88 72.27 106.75 73.46 106.62 74.66 106.47 75.61 106.29 76.81 106.09 77.76 105.89 78.96 105.66 80.15 105.44 81.11 105.18 82.06 104.9 83.02 104.59 83.97 104.27 84.69 103.94 85.4 103.57 86.12 103.2 86.84 102.81 87.32 102.43 87.79 102.16 88.51 101.6 89.23 100.92 89.94 100.27 90.42 99.59 91.14 98.9 91.61 98.23 92.09 97.53 92.81 96.85 93.29 96.15 94 95.48 94.48 94.77 94.96 94.1 95.68 93.39 96.15 92.71 96.87 92.04 97.35 91.35 98.06 90.66 98.78 89.95 99.26 89.26 99.97 88.59 100.69 87.9 101.41 87.21 102.12 86.55 103.08 85.87 103.8 85.2 104.51 84.51 105.23 83.86 106.18 83.17 107.14 82.52 107.86 81.84 108.81 81.21 109.77 80.56 110.72 79.88 111.44 79.14 112.4 78.48 113.59 77.8 114.54 77.19 115.74 76.56 117.17 75.91 118.61 75.36 120.04 74.68 121.71 74.08 123.14 73.45 124.58 72.8 126.25 72.28 127.92 71.57 129.35 71.02 131.03 70.31 132.7 69.78 133.89 69.1 133.18 69.28 132.22 69.52 131.98 69.55 132.7 69.3 132.7 69.26 133.89 68.82 135.56 68.26 137.24 67.76 138.91 67.21 140.34 66.66 142.01 66.14 143.69 65.58 145.36 65.07 147.03 64.53 148.7 63.98 150.61 63.47 152.28 62.92 153.96 62.42 155.87 61.9 157.54 61.39 159.45 60.87 161.12 60.33 163.03 59.77 164.94 59.27 166.85 58.75 168.76 58.28 170.68 57.71 172.59 57.21 174.5 56.77 176.41 56.23 178.32 55.75 180.47 55.26 182.62 54.75 184.53 54.22 186.68 53.78 189.55 53.26 192.17 52.82 194.8 52.37 197.43 52.02 200.29 51.54 202.92 51.16 205.55 50.63 208.18 50.21 211.04 49.79 213.67 49.34 216.3 49.03 218.92 48.55 221.79 48.05 224.42 47.68 227.05 47.32 229.43 46.75 231.82 46.34 234.45 45.91 236.84 45.48 240.18 45.06 243.53 44.64 246.63 44.4 249.98 43.94 253.32 43.47 256.66 43.18 260.01 42.9 263.35 42.37 266.7 42.05 270.28 41.72 273.62 41.39 276.97 41.05 280.31 40.68 283.89 40.31 287.24 39.94 290.82 39.53 294.16 39.43 297.75 39.01 301.33 38.58 305.63 38.49 310.41 38.09 315.18 38.01 319.96 37.58 325.21 37.53 329.99 37.03" id="img-0e647004-358" stroke="#FF6765" class="geometry color_13gyr"/>
        <path fill="none" d="M220.84,195.17 L 219.64 194.07 218.69 192.96 217.49 191.84 216.54 190.76 215.34 189.63 214.15 188.52 213.19 187.4 212 186.35 210.8 185.3 209.61 184.23 208.41 183.18 207.22 182.12 206.03 181.07 205.07 180.01 203.88 178.94 202.68 177.89 201.25 176.83 200.05 175.76 198.86 174.7 197.91 173.63 196.23 172.61 194.32 171.58 192.65 170.55 190.98 169.6 189.07 168.63 187.4 167.67 185.72 166.73 183.81 165.76 181.9 164.8 180.23 163.84 178.32 162.9 176.17 161.94 173.78 161.1 171.39 160.27 168.76 159.51 166.38 158.78 163.75 158.04 161.36 157.3 158.73 156.58 156.34 155.84 153.72 155.1 151.09 154.35 148.46 153.61 145.83 152.87 143.21 152.13 140.58 151.41 137.71 150.65 135.09 149.92 132.46 149.18 129.59 148.44 126.73 147.7 124.34 147.05 121.71 146.41 119.08 145.76 116.22 145.1 113.59 144.47 110.96 143.81 108.33 143.16 105.71 142.5 102.84 141.82 100.21 141.15 97.35 140.5 94.72 139.83 91.85 139.14 89.23 138.48 86.36 137.78 84.21 137.15 81.82 136.51 79.43 135.88 77.04 135.23 74.66 134.6 72.27 133.92 69.88 133.19 67.73 132.46 65.58 131.71 63.43 130.94 61.28 130.18 59.13 129.42 56.98 128.65 54.83 127.87 52.68 127.08 50.77 126.29 49.34 125.5 47.67 124.71 46.23 123.87 44.8 123.07 43.37 122.2 41.93 121.34 40.5 120.5 39.07 119.69 37.63 118.84 35.96 118 34.53 117.12 33.33 116.26 31.9 115.4 30.71 114.48 29.75 113.54 29.03 112.53 28.32 111.56 27.84 110.65 27.84 110.19 28.08 109.68 28.32 109.17 28.8 108.71 29.51 108.28 30.23 107.87 30.95 107.5 31.9 107.15 32.86 106.85 33.81 106.56 34.77 106.29 35.96 106.04 36.92 105.82 38.11 105.62 39.07 105.42 40.26 105.24 41.46 105.09 42.65 104.94 43.6 104.8 44.8 104.67 45.99 104.54 47.19 104.42 48.62 104.33 50.29 104.25 51.73 104.18 53.16 104.11 54.83 104.03 56.26 103.98 57.7 103.93 59.13 103.89 60.8 103.85 62.24 103.8 63.67 103.75 65.1 103.7 66.77 103.66 68.21 103.6 69.64 103.51 71.07 103.41 72.27 103.29 73.7 103.14 75.13 102.97 76.33 102.77 77.52 102.52 78.72 102.26 79.91 101.98 81.11 101.66 82.06 101.31 83.02 100.93 83.97 100.54 84.45 100.22 85.4 99.66 86.36 99.05 87.32 98.39 88.03 97.74 88.75 97.06 89.47 96.39 90.18 95.71 90.9 95.03 91.38 94.34 92.09 93.66 92.57 92.95 93.29 92.27 93.76 91.56 94.48 90.89 95.2 90.18 95.91 89.52 96.63 88.82 97.35 88.15 97.82 87.45 98.54 86.75 99.5 86.08 100.21 85.4 100.93 84.7 101.65 84.02 102.36 83.38 103.32 82.64 104.04 81.98 104.75 81.29 105.95 80.66 106.9 79.98 107.86 79.36 108.81 78.68 109.77 78 110.96 77.36 111.92 76.69 112.87 75.98 114.07 75.34 115.26 74.68 116.46 74.09 117.65 73.38 119.32 72.78 120.99 72.13 122.43 71.57 123.86 70.87 125.77 70.28 127.2 69.76 128.88 69.01 130.55 68.42 132.22 67.86 133.41 67.2 132.46 67.42 131.5 67.68 130.55 67.96 131.5 67.65 131.74 67.55 132.94 67.14 134.37 66.63 136.04 66.09 137.47 65.59 139.15 65.09 140.82 64.57 142.49 64.06 143.92 63.55 145.83 63.07 147.51 62.56 149.18 62.07 150.85 61.54 152.52 61.02 154.19 60.53 156.11 60.07 157.78 59.58 159.45 59.03 161.36 58.56 163.27 58.09 164.94 57.61 166.85 57.09 168.53 56.63 170.44 56.15 172.35 55.66 174.26 55.14 176.17 54.68 178.08 54.21 179.99 53.71 181.9 53.28 183.81 52.75 185.96 52.29 188.35 51.84 190.98 51.39 193.37 51.03 196.23 50.54 198.86 50.15 201.49 49.74 203.88 49.3 206.5 48.85 209.13 48.51 211.52 48.03 214.15 47.65 216.77 47.26 219.16 46.85 221.79 46.42 224.18 46 226.57 45.53 228.96 45.07 231.58 44.74 233.97 44.25 236.36 43.88 239.23 43.54 242.57 43.21 245.91 42.85 249.02 42.5 252.36 42.11 255.71 41.71 258.81 41.49 262.16 41.07 265.5 40.62 268.84 40.38 272.19 40.14 275.77 39.65 279.12 39.39 282.46 39.11 285.8 38.82 289.39 38.53 292.73 38.22 296.07 37.9 299.66 37.58 303.48 37.27 308.02 36.98 313.03 36.97 317.57 36.56" id="img-0e647004-359" stroke="#FF6DAE" class="geometry color_10gyr"/>
      </g>
    </g>
  </g>
</g>
  <g class="guide ylabels" font-size="2.82" font-family="'PT Sans Caption','Helvetica Neue','Helvetica',sans-serif" fill="#6C606B" id="img-0e647004-360">
    <text x="16.96" y="7" text-anchor="end" dy="0.35em" id="img-0e647004-361">-5</text>
    <text x="16.96" y="66.07" text-anchor="end" dy="0.35em" id="img-0e647004-362">0</text>
    <text x="16.96" y="125.13" text-anchor="end" dy="0.35em" id="img-0e647004-363">5</text>
    <text x="16.96" y="184.2" text-anchor="end" dy="0.35em" id="img-0e647004-364">10</text>
    <text x="16.96" y="243.27" text-anchor="end" dy="0.35em" id="img-0e647004-365">15</text>
  </g>
  <g font-size="3.88" font-family="'PT Sans','Helvetica Neue','Helvetica',sans-serif" fill="#564A55" stroke="#000000" stroke-opacity="0.000" id="img-0e647004-366">
    <text x="8.81" y="123.13" text-anchor="middle" dy="0.35em" transform="rotate(-90, 8.81, 125.13)" id="img-0e647004-367">Mv</text>
  </g>
</g>
<defs>
  <clipPath id="img-0e647004-33">
  <path d="M17.96,5 L 248.87 5 248.87 245.27 17.96 245.27" />
</clipPath>
  <g id="img-0e647004-50">
    <circle cx="0" cy="0" r="1.8" id="img-0e647004-368"/>
  </g>
  <g id="img-0e647004-53">
    <circle cx="0" cy="0" r="1.79" id="img-0e647004-369"/>
  </g>
  <g id="img-0e647004-56">
    <circle cx="0" cy="0" r="1.77" id="img-0e647004-370"/>
  </g>
  <g id="img-0e647004-59">
    <circle cx="0" cy="0" r="1.76" id="img-0e647004-371"/>
  </g>
  <g id="img-0e647004-62">
    <circle cx="0" cy="0" r="1.75" id="img-0e647004-372"/>
  </g>
  <g id="img-0e647004-65">
    <circle cx="0" cy="0" r="1.73" id="img-0e647004-373"/>
  </g>
  <g id="img-0e647004-68">
    <circle cx="0" cy="0" r="1.72" id="img-0e647004-374"/>
  </g>
  <g id="img-0e647004-71">
    <circle cx="0" cy="0" r="1.7" id="img-0e647004-375"/>
  </g>
  <g id="img-0e647004-74">
    <circle cx="0" cy="0" r="1.69" id="img-0e647004-376"/>
  </g>
  <g id="img-0e647004-77">
    <circle cx="0" cy="0" r="1.68" id="img-0e647004-377"/>
  </g>
  <g id="img-0e647004-80">
    <circle cx="0" cy="0" r="1.66" id="img-0e647004-378"/>
  </g>
  <g id="img-0e647004-83">
    <circle cx="0" cy="0" r="1.65" id="img-0e647004-379"/>
  </g>
  <g id="img-0e647004-86">
    <circle cx="0" cy="0" r="1.64" id="img-0e647004-380"/>
  </g>
  <g id="img-0e647004-89">
    <circle cx="0" cy="0" r="1.62" id="img-0e647004-381"/>
  </g>
  <g id="img-0e647004-92">
    <circle cx="0" cy="0" r="1.61" id="img-0e647004-382"/>
  </g>
  <g id="img-0e647004-95">
    <circle cx="0" cy="0" r="1.6" id="img-0e647004-383"/>
  </g>
  <g id="img-0e647004-98">
    <circle cx="0" cy="0" r="1.58" id="img-0e647004-384"/>
  </g>
  <g id="img-0e647004-101">
    <circle cx="0" cy="0" r="1.57" id="img-0e647004-385"/>
  </g>
  <g id="img-0e647004-104">
    <circle cx="0" cy="0" r="1.55" id="img-0e647004-386"/>
  </g>
  <g id="img-0e647004-107">
    <circle cx="0" cy="0" r="1.54" id="img-0e647004-387"/>
  </g>
  <g id="img-0e647004-110">
    <circle cx="0" cy="0" r="1.53" id="img-0e647004-388"/>
  </g>
  <g id="img-0e647004-113">
    <circle cx="0" cy="0" r="1.51" id="img-0e647004-389"/>
  </g>
  <g id="img-0e647004-116">
    <circle cx="0" cy="0" r="1.5" id="img-0e647004-390"/>
  </g>
  <g id="img-0e647004-119">
    <circle cx="0" cy="0" r="1.49" id="img-0e647004-391"/>
  </g>
  <g id="img-0e647004-122">
    <circle cx="0" cy="0" r="1.47" id="img-0e647004-392"/>
  </g>
  <g id="img-0e647004-125">
    <circle cx="0" cy="0" r="1.46" id="img-0e647004-393"/>
  </g>
  <g id="img-0e647004-128">
    <circle cx="0" cy="0" r="1.45" id="img-0e647004-394"/>
  </g>
  <g id="img-0e647004-131">
    <circle cx="0" cy="0" r="1.43" id="img-0e647004-395"/>
  </g>
  <g id="img-0e647004-134">
    <circle cx="0" cy="0" r="1.42" id="img-0e647004-396"/>
  </g>
  <g id="img-0e647004-137">
    <circle cx="0" cy="0" r="1.4" id="img-0e647004-397"/>
  </g>
  <g id="img-0e647004-140">
    <circle cx="0" cy="0" r="1.39" id="img-0e647004-398"/>
  </g>
  <g id="img-0e647004-143">
    <circle cx="0" cy="0" r="1.38" id="img-0e647004-399"/>
  </g>
  <g id="img-0e647004-146">
    <circle cx="0" cy="0" r="1.36" id="img-0e647004-400"/>
  </g>
  <g id="img-0e647004-149">
    <circle cx="0" cy="0" r="1.35" id="img-0e647004-401"/>
  </g>
  <g id="img-0e647004-152">
    <circle cx="0" cy="0" r="1.34" id="img-0e647004-402"/>
  </g>
  <g id="img-0e647004-155">
    <circle cx="0" cy="0" r="1.32" id="img-0e647004-403"/>
  </g>
  <g id="img-0e647004-158">
    <circle cx="0" cy="0" r="1.31" id="img-0e647004-404"/>
  </g>
  <g id="img-0e647004-161">
    <circle cx="0" cy="0" r="1.3" id="img-0e647004-405"/>
  </g>
  <g id="img-0e647004-164">
    <circle cx="0" cy="0" r="1.28" id="img-0e647004-406"/>
  </g>
  <g id="img-0e647004-167">
    <circle cx="0" cy="0" r="1.27" id="img-0e647004-407"/>
  </g>
  <g id="img-0e647004-170">
    <circle cx="0" cy="0" r="1.25" id="img-0e647004-408"/>
  </g>
  <g id="img-0e647004-173">
    <circle cx="0" cy="0" r="1.24" id="img-0e647004-409"/>
  </g>
  <g id="img-0e647004-176">
    <circle cx="0" cy="0" r="1.23" id="img-0e647004-410"/>
  </g>
  <g id="img-0e647004-179">
    <circle cx="0" cy="0" r="1.21" id="img-0e647004-411"/>
  </g>
  <g id="img-0e647004-182">
    <circle cx="0" cy="0" r="1.2" id="img-0e647004-412"/>
  </g>
  <g id="img-0e647004-185">
    <circle cx="0" cy="0" r="1.19" id="img-0e647004-413"/>
  </g>
  <g id="img-0e647004-188">
    <circle cx="0" cy="0" r="1.17" id="img-0e647004-414"/>
  </g>
  <g id="img-0e647004-191">
    <circle cx="0" cy="0" r="1.16" id="img-0e647004-415"/>
  </g>
  <g id="img-0e647004-194">
    <circle cx="0" cy="0" r="1.15" id="img-0e647004-416"/>
  </g>
  <g id="img-0e647004-197">
    <circle cx="0" cy="0" r="1.13" id="img-0e647004-417"/>
  </g>
  <g id="img-0e647004-200">
    <circle cx="0" cy="0" r="1.12" id="img-0e647004-418"/>
  </g>
  <g id="img-0e647004-203">
    <circle cx="0" cy="0" r="1.1" id="img-0e647004-419"/>
  </g>
  <g id="img-0e647004-206">
    <circle cx="0" cy="0" r="1.09" id="img-0e647004-420"/>
  </g>
  <g id="img-0e647004-209">
    <circle cx="0" cy="0" r="1.08" id="img-0e647004-421"/>
  </g>
  <g id="img-0e647004-212">
    <circle cx="0" cy="0" r="1.06" id="img-0e647004-422"/>
  </g>
  <g id="img-0e647004-215">
    <circle cx="0" cy="0" r="1.05" id="img-0e647004-423"/>
  </g>
  <g id="img-0e647004-218">
    <circle cx="0" cy="0" r="1.04" id="img-0e647004-424"/>
  </g>
  <g id="img-0e647004-221">
    <circle cx="0" cy="0" r="1.02" id="img-0e647004-425"/>
  </g>
  <g id="img-0e647004-224">
    <circle cx="0" cy="0" r="1.01" id="img-0e647004-426"/>
  </g>
  <g id="img-0e647004-227">
    <circle cx="0" cy="0" r="1" id="img-0e647004-427"/>
  </g>
  <g id="img-0e647004-230">
    <circle cx="0" cy="0" r="0.98" id="img-0e647004-428"/>
  </g>
  <g id="img-0e647004-233">
    <circle cx="0" cy="0" r="0.97" id="img-0e647004-429"/>
  </g>
  <g id="img-0e647004-236">
    <circle cx="0" cy="0" r="0.95" id="img-0e647004-430"/>
  </g>
  <g id="img-0e647004-239">
    <circle cx="0" cy="0" r="0.94" id="img-0e647004-431"/>
  </g>
  <g id="img-0e647004-242">
    <circle cx="0" cy="0" r="0.93" id="img-0e647004-432"/>
  </g>
  <g id="img-0e647004-245">
    <circle cx="0" cy="0" r="0.91" id="img-0e647004-433"/>
  </g>
  <g id="img-0e647004-248">
    <circle cx="0" cy="0" r="0.9" id="img-0e647004-434"/>
  </g>
  <g id="img-0e647004-251">
    <circle cx="0" cy="0" r="0.89" id="img-0e647004-435"/>
  </g>
  <g id="img-0e647004-254">
    <circle cx="0" cy="0" r="0.87" id="img-0e647004-436"/>
  </g>
  <g id="img-0e647004-257">
    <circle cx="0" cy="0" r="0.86" id="img-0e647004-437"/>
  </g>
  <g id="img-0e647004-260">
    <circle cx="0" cy="0" r="0.85" id="img-0e647004-438"/>
  </g>
  <g id="img-0e647004-263">
    <circle cx="0" cy="0" r="0.83" id="img-0e647004-439"/>
  </g>
  <g id="img-0e647004-266">
    <circle cx="0" cy="0" r="0.82" id="img-0e647004-440"/>
  </g>
  <g id="img-0e647004-269">
    <circle cx="0" cy="0" r="0.8" id="img-0e647004-441"/>
  </g>
  <g id="img-0e647004-272">
    <circle cx="0" cy="0" r="0.79" id="img-0e647004-442"/>
  </g>
  <g id="img-0e647004-275">
    <circle cx="0" cy="0" r="0.78" id="img-0e647004-443"/>
  </g>
  <g id="img-0e647004-278">
    <circle cx="0" cy="0" r="0.76" id="img-0e647004-444"/>
  </g>
  <g id="img-0e647004-281">
    <circle cx="0" cy="0" r="0.75" id="img-0e647004-445"/>
  </g>
  <g id="img-0e647004-284">
    <circle cx="0" cy="0" r="0.74" id="img-0e647004-446"/>
  </g>
  <g id="img-0e647004-287">
    <circle cx="0" cy="0" r="0.72" id="img-0e647004-447"/>
  </g>
  <g id="img-0e647004-290">
    <circle cx="0" cy="0" r="0.71" id="img-0e647004-448"/>
  </g>
  <g id="img-0e647004-293">
    <circle cx="0" cy="0" r="0.7" id="img-0e647004-449"/>
  </g>
  <g id="img-0e647004-296">
    <circle cx="0" cy="0" r="0.68" id="img-0e647004-450"/>
  </g>
  <g id="img-0e647004-299">
    <circle cx="0" cy="0" r="0.67" id="img-0e647004-451"/>
  </g>
  <g id="img-0e647004-302">
    <circle cx="0" cy="0" r="0.65" id="img-0e647004-452"/>
  </g>
  <g id="img-0e647004-305">
    <circle cx="0" cy="0" r="0.64" id="img-0e647004-453"/>
  </g>
  <g id="img-0e647004-308">
    <circle cx="0" cy="0" r="0.63" id="img-0e647004-454"/>
  </g>
  <g id="img-0e647004-311">
    <circle cx="0" cy="0" r="0.61" id="img-0e647004-455"/>
  </g>
  <g id="img-0e647004-314">
    <circle cx="0" cy="0" r="0.6" id="img-0e647004-456"/>
  </g>
  <g id="img-0e647004-317">
    <circle cx="0" cy="0" r="0.59" id="img-0e647004-457"/>
  </g>
  <g id="img-0e647004-320">
    <circle cx="0" cy="0" r="0.57" id="img-0e647004-458"/>
  </g>
  <g id="img-0e647004-323">
    <circle cx="0" cy="0" r="0.56" id="img-0e647004-459"/>
  </g>
  <g id="img-0e647004-326">
    <circle cx="0" cy="0" r="0.55" id="img-0e647004-460"/>
  </g>
  <g id="img-0e647004-329">
    <circle cx="0" cy="0" r="0.53" id="img-0e647004-461"/>
  </g>
  <g id="img-0e647004-332">
    <circle cx="0" cy="0" r="0.52" id="img-0e647004-462"/>
  </g>
  <g id="img-0e647004-335">
    <circle cx="0" cy="0" r="0.5" id="img-0e647004-463"/>
  </g>
  <g id="img-0e647004-338">
    <circle cx="0" cy="0" r="0.49" id="img-0e647004-464"/>
  </g>
  <g id="img-0e647004-341">
    <circle cx="0" cy="0" r="0.48" id="img-0e647004-465"/>
  </g>
  <g id="img-0e647004-344">
    <circle cx="0" cy="0" r="0.46" id="img-0e647004-466"/>
  </g>
  <g id="img-0e647004-347">
    <circle cx="0" cy="0" r="0.45" id="img-0e647004-467"/>
  </g>
</defs>
</svg>
